<svg width="570" height="319" viewBox="0 0 570 319" fill="none" xmlns="http://www.w3.org/2000/svg">
<path d="M206.041 240.42V223.06L208.581 222.916V240.333L241.61 240.42L241.754 183.431L212.39 184.037L212.549 209.903L186.244 183.431V240.261L206.041 240.42Z" fill="#5287DD"/>
<path d="M31.8751 240.593L31.803 222.208H41.2977L41.2255 205.152L59.0029 205.08V183.474L3.18897 183.315L3.04468 240.521L31.8751 240.593Z" fill="#5287DD"/>
<path d="M370.871 161.782L426.31 161.71V142.646L401.058 142.718L401.13 140.48L421.158 140.696L421.303 125.59L400.163 125.445L400.235 123.495L413.078 123.654L413.236 104.721H370.943L370.871 161.782Z" fill="#5287DD"/>
<path d="M305.937 240.449L361.376 240.376V221.313L336.124 221.385L336.196 219.146L356.225 219.363L356.369 204.256L335.23 204.112L335.302 202.162L348.159 202.307L348.303 183.387H306.01L305.937 240.449Z" fill="#5287DD"/>
<path d="M316.702 153.405C319.549 156.308 322.944 158.615 326.689 160.194C330.434 161.774 334.456 162.593 338.52 162.605C358.923 163.284 365.041 142.184 365.647 138.819C364.328 138.099 362.921 137.55 361.463 137.187L339.645 130.226L364.666 117.661C364.594 117.661 363.627 115.942 363.108 115.264C362.692 114.64 362.239 114.042 361.751 113.473C360.586 111.96 359.233 110.601 357.725 109.429C353.757 105.919 347.264 102.93 338 102.93C319.4 103.161 308.491 117.141 308.708 133.143C308.863 140.637 311.7 147.827 316.702 153.405Z" fill="#5287DD"/>
<path d="M124.672 161.941H152.55L152.622 104.649L124.6 104.576L124.672 161.941Z" fill="#5287DD"/>
<path d="M62.1485 122.225H75.7412L75.5969 124.391H62.1485L61.8455 161.479L87.1695 161.638L87.3282 147.051H89.2618L89.334 161.623H119.449L106.462 133.143L107.587 132.768C109.731 131.931 111.691 130.685 113.359 129.099C114.627 127.884 115.632 126.421 116.312 124.801C116.992 123.182 117.333 121.44 117.313 119.683C117.473 116.028 116.31 112.439 114.038 109.573C113.086 108.295 111.873 107.234 110.48 106.462C109.086 105.69 107.544 105.224 105.957 105.096H62.0763L62.1485 122.225Z" fill="#5287DD"/>
<path d="M400.019 200.964H413.611L413.467 203.13H400.019L399.716 240.232L425.04 240.376L425.198 225.79H427.132L427.204 240.376L457.319 240.304L444.332 211.81L445.458 211.434C447.601 210.598 449.561 209.352 451.23 207.766C452.497 206.551 453.502 205.088 454.182 203.468C454.862 201.848 455.203 200.106 455.183 198.35C455.343 194.695 454.18 191.105 451.908 188.24C450.956 186.961 449.744 185.901 448.35 185.129C446.957 184.357 445.415 183.891 443.827 183.763H399.947L400.019 200.964Z" fill="#5287DD"/>
<path d="M64.5728 200.964H78.1655L78.0212 203.13H64.5728L64.2698 240.218L89.6082 240.376L89.7525 225.79H91.7005L91.7727 240.376L121.873 240.29L108.958 211.81L110.069 211.434C112.213 210.598 114.173 209.352 115.841 207.766C117.111 206.552 118.119 205.09 118.802 203.47C119.484 201.85 119.827 200.107 119.809 198.35C119.964 194.693 118.796 191.104 116.519 188.24C115.571 186.962 114.361 185.901 112.97 185.129C111.579 184.357 110.039 183.891 108.453 183.763H64.4429L64.5728 200.964Z" fill="#5287DD"/>
<path d="M3.04471 128.579H14.6894L14.8482 161.565H44.2846L44.732 128.81H56.6797L56.7663 104.807L2.88599 104.879L3.04471 128.579Z" fill="#5287DD"/>
<path d="M247.064 207.318H258.724L258.868 240.304H288.304L288.752 207.549H300.714L300.786 183.546L246.92 183.619L247.064 207.318Z" fill="#5287DD"/>
<path d="M400.538 51.5443L421.158 51.4721V53.4363C421.158 53.6529 414.203 53.7251 400.38 53.6529L400.538 82.9706C425.718 82.9706 439.498 83.115 441.85 82.9706C444.549 82.9706 447.911 81.3964 451.273 78.3346C456.352 74.002 460.897 65.7699 461.2 54.7794C461.2 45.8108 459.036 38.2575 455.818 34.2858C454.352 32.3296 452.59 30.6143 450.595 29.2022C446.713 26.5159 443.726 25.8372 441.331 25.9094C438.113 25.9094 424.52 25.9094 400.538 25.9094V51.5443Z" fill="#5287DD"/>
<path d="M357.422 62.4772L360.337 62.3327L360.857 82.2919H395.228L368.548 25.1584L350.467 25.3895L322.229 82.0753L357.798 82.2919L357.422 62.4772Z" fill="#5287DD"/>
<path d="M497.895 219.955L500.795 219.811L501.329 239.784H535.701L509.02 182.651L490.94 182.868L462.701 239.553L498.27 239.784L497.895 219.955Z" fill="#5287DD"/>
<path d="M295.101 18.6594L300.108 23.743L316.024 11.5538L308.405 3.24951L295.101 18.6594Z" fill="#5287DD"/>
<path d="M288.91 83.115H316.774L316.846 25.8371L288.824 25.7649L288.91 83.115Z" fill="#5287DD"/>
<path d="M275.375 161.941H303.254L303.326 104.649L275.303 104.576L275.375 161.941Z" fill="#5287DD"/>
<path d="M366.686 240.608H394.55L394.636 183.315L366.614 183.243L366.686 240.608Z" fill="#5287DD"/>
<path d="M226.3 45.0886H239.373L239.301 47.4139H226.156L226.517 82.7828L255.376 82.8551V60.9461H271.667C274.726 60.9461 277.439 59.2276 279.878 55.8625C282.481 52.0376 283.818 47.4911 283.701 42.8645C283.701 32.235 275.996 26.1116 270.325 26.1116L226.315 26.3282L226.3 45.0886Z" fill="#5287DD"/>
<path d="M158.12 123.828H171.193V126.153H158.048L158.423 161.522H187.282V139.613H203.574C206.647 139.613 209.345 137.895 211.798 134.53C214.405 130.707 215.739 126.158 215.608 121.532C215.608 110.916 207.917 104.779 202.232 104.779L158.221 105.01L158.12 123.828Z" fill="#5287DD"/>
<path d="M176.301 82.8984L176.532 64.3401H178.552L178.322 82.9706L194.468 82.8984V64.4267L196.561 64.499L196.402 83.0428L220.759 83.115L220.831 25.7649L187.744 39.1384L154.339 25.9093V82.8984H176.301Z" fill="#5287DD"/>
<path d="M121.238 83.115H149.116L149.188 25.8371L121.166 25.7649L121.238 83.115Z" fill="#5287DD"/>
<path d="M66.4773 82.8985L115.711 83.1151L115.928 57.6246L90.8346 57.5379L91.2097 25.9094L66.4773 25.9816V82.8985Z" fill="#5287DD"/>
<path d="M220.615 161.522L269.849 161.753L270.08 136.248L244.972 136.176L245.347 104.533L220.615 104.62V161.522Z" fill="#5287DD"/>
<path d="M6.92628 39.5139C4.32623 43.9303 2.98385 48.9749 3.04471 54.1006C2.99256 59.248 4.33388 64.3135 6.92628 68.7594C9.49012 73.1521 13.1432 76.8083 17.5321 79.3744C21.9812 81.9202 27.0172 83.2594 32.1421 83.2594C37.267 83.2594 42.303 81.9202 46.7521 79.3744C51.1443 76.8125 54.7982 73.1554 57.3579 68.7594C59.9503 64.3135 61.2916 59.248 61.2395 54.1006C61.3003 48.9749 59.958 43.9303 57.3579 39.5139C54.8192 35.1018 51.1603 31.4398 46.7521 28.8989C42.303 26.3531 37.267 25.0139 32.1421 25.0139C27.0172 25.0139 21.9812 26.3531 17.5321 28.8989C13.1272 31.4442 9.46939 35.1052 6.92628 39.5139Z" fill="#5287DD"/>
<path d="M491.907 62.4772L494.822 62.3327L495.355 82.2919H529.727L503.046 25.1584L484.966 25.3895L456.727 82.0753L492.282 82.2919L491.907 62.4772Z" fill="#5287DD"/>
<path d="M130.877 97.3984L135.884 102.482L151.8 90.2928L144.181 81.9885L130.877 97.3984Z" fill="#5287DD"/>
<path d="M126.591 197.007C123.987 201.416 122.639 206.456 122.695 211.579C122.647 216.728 123.993 221.793 126.591 226.238C129.151 230.638 132.804 234.3 137.197 236.867C141.646 239.413 146.682 240.752 151.807 240.752C156.932 240.752 161.968 239.413 166.417 236.867C170.807 234.296 174.46 230.635 177.023 226.238C179.617 221.792 180.958 216.726 180.905 211.579C180.966 206.458 179.623 201.418 177.023 197.007C174.48 192.594 170.823 188.928 166.417 186.377C161.968 183.831 156.932 182.492 151.807 182.492C146.682 182.492 141.646 183.831 137.197 186.377C132.787 188.922 129.128 192.589 126.591 197.007Z" fill="#5287DD"/>
<path d="M29.9705 22.1256C35.24 22.0486 40.4299 23.4171 44.9773 26.0828C47.925 27.9076 50.5729 30.1778 52.8271 32.8128C55.5069 35.0696 57.8023 37.7476 59.6235 40.7417C62.2192 45.3108 63.584 50.4767 63.584 55.7327C63.584 60.9888 62.2192 66.1546 59.6235 70.7237C57.0057 75.2569 53.2438 79.0221 48.7146 81.6421C44.1495 84.2401 38.9882 85.606 33.7367 85.606C28.4852 85.606 23.3238 84.2401 18.7587 81.6421C15.7609 79.8872 13.0822 77.636 10.8368 74.9843C5.46336 70.4336 1.8496 64.145 0.621535 57.208C-0.606535 50.271 0.62847 43.1226 4.1126 37.0011C6.81958 32.5373 10.5615 28.7921 15.0214 26.0828C19.5537 23.4314 24.7211 22.0635 29.9705 22.1256ZM4.7908 37.3766C2.15833 41.7933 0.790511 46.8496 0.837068 51.9922C0.788576 57.141 2.13495 62.2069 4.73307 66.6511C7.29232 71.0511 10.9461 74.7131 15.3388 77.2805C19.7879 79.8263 24.824 81.1654 29.9489 81.1654C35.0737 81.1654 40.1098 79.8263 44.5589 77.2805C48.9488 74.7094 52.6018 71.0483 55.1647 66.6511C57.7584 62.2057 59.0998 57.1398 59.0463 51.9922C59.1074 46.871 57.7649 41.8309 55.1647 37.4199C52.6259 33.0079 48.9671 29.3459 44.5589 26.8049C40.1131 24.2493 35.0757 22.9045 29.9489 22.9045C24.822 22.9045 19.7847 24.2493 15.3388 26.8049C10.9544 29.3382 7.31583 32.9849 4.7908 37.3766Z" fill="#2B2B2B"/>
<path d="M63.5913 23.1077H89.81V26.8482H93.6194L93.2442 54.7362C100.344 54.7362 107.587 54.7362 114.615 54.7362L114.543 58.4767H118.352L118.135 85.4693L67.4008 85.2526V81.512H63.6635L63.5913 23.1077ZM64.3417 80.7611L113.576 80.9921L113.792 55.4871H88.6989L89.0741 23.8442L64.3417 23.9309V80.7611Z" fill="#2B2B2B"/>
<path d="M118.28 22.9487L147.788 23.0209V26.7615H151.526L151.454 85.5269H122.046V81.8008H118.309L118.28 22.9487ZM119.102 81.0498H146.98L147.053 23.7575L119.03 23.6853L119.102 81.0498Z" fill="#2B2B2B"/>
<path d="M155.234 85.2092V81.4687H151.497V22.6888L185.536 36.25C196.445 31.8451 208.48 26.8337 219.388 22.4866V27.7291L223.126 26.2849V85.4979L197.268 85.4258V81.6853H196.82V85.2092H179.187V81.4687H178.668V85.2092H155.234ZM174.209 80.7176L174.44 62.1739H176.46L176.229 80.7898H192.362V62.3183L194.454 62.3904L194.31 80.9343L218.667 81.0209L218.739 23.6564L185.536 37.001L152.146 23.7575V80.7466L174.209 80.7176Z" fill="#2B2B2B"/>
<path d="M223.414 23.3099L268.146 23.0933C270.271 23.2538 272.332 23.8964 274.172 24.9724C276.012 26.0484 277.583 27.5294 278.766 29.3034C281.084 31.0451 282.949 33.3186 284.204 35.9326C285.46 38.5466 286.069 41.4243 285.981 44.3234C286.12 49.118 284.73 53.8323 282.013 57.7835C279.401 61.3074 276.487 63.0982 273.197 63.1704H257.656V85.2093L227.354 85.1226L227.281 81.3821H223.631L223.256 44.5256H227.152V43.6302H223.414V23.3099ZM224.15 42.8358L237.238 42.908L237.151 45.2332H224.006L224.381 80.6023H253.24V58.6934H269.517C272.591 58.6067 275.289 56.9603 277.742 53.5952C280.349 49.7728 281.682 45.2235 281.551 40.5972C281.551 29.9822 273.86 23.8587 268.175 23.8587L224.165 24.0753L224.15 42.8358Z" fill="#2B2B2B"/>
<path d="M285.952 22.9487L298.347 23.0209L297.9 22.5732L291.926 16.5075L306.197 0L309.776 3.88496L309.934 3.74058L318.751 13.229L305.966 23.0354H315.403V26.7759H319.141L319.068 85.5413H289.762V81.8153H286.025L285.952 22.9487ZM286.775 81.0498H314.638V23.7575L286.616 23.6853L286.775 81.0498ZM292.965 16.5075L297.972 21.5912L313.845 9.40191L306.226 1.11208L292.965 16.5075Z" fill="#2B2B2B"/>
<path d="M366.859 22.27L368.577 26.0828H370.597L398.013 84.7038H361.708L361.578 80.8766H360.135L360.207 84.6171L322.69 84.4004L324.48 80.7322L318.953 80.6599L347.942 22.4722L366.859 22.27ZM355.316 60.3253L358.202 60.181L358.721 80.1545H393.092L366.412 23.021L348.332 23.2377L320.093 79.9234L355.662 80.1545L355.316 60.3253Z" fill="#2B2B2B"/>
<path d="M397.494 23.1077C421.49 23.1077 435.833 23.1077 439.036 23.1077C442.572 23.1278 445.998 24.3386 448.762 26.5449C450.55 27.8465 452.156 29.3812 453.538 31.1086C455.143 32.3815 456.595 33.8354 457.867 35.4413C461.013 39.5573 463.48 47.4139 463.394 56.3825C463.105 67.2286 458.17 75.9807 453.163 80.5444C450.523 83.1818 447.081 84.8637 443.38 85.3247C442.254 85.3247 439.643 85.3247 435.977 85.3247C431.937 85.3247 426.266 85.3247 419.095 85.3247C414.766 85.3247 406.238 85.3247 401.231 85.3247V81.5842H397.494L397.349 50.7646H401.231V50.1724H397.494V23.1077ZM398.244 49.3492H418.864V51.2989C418.864 51.5156 411.923 51.5877 398.1 51.5155L398.244 80.8332C423.424 80.8332 437.204 80.9776 439.57 80.8332C442.254 80.8332 445.616 79.2591 448.979 76.1973C454.058 71.8647 458.618 63.6326 458.921 52.642C458.993 43.6734 456.756 36.1201 453.538 32.1485C452.055 30.2021 450.29 28.4886 448.3 27.0648C444.419 24.3786 441.432 23.6998 439.036 23.772C435.833 23.772 422.226 23.772 398.244 23.8587V49.3492Z" fill="#2B2B2B"/>
<path d="M0 101.977H55.3666V105.717H59.1039V131.222H47.0118L46.5645 163.977H15.6995V160.237H11.9622L11.8035 130.991H3.896L3.80943 127.25H0.158727L0 101.977ZM0.894631 126.442H12.5538L12.7125 159.413H42.149L42.5963 126.658H54.5441L54.6162 102.655L0.750348 102.728L0.894631 126.442Z" fill="#2B2B2B"/>
<path d="M59.1759 101.977H103.908C105.611 102.103 107.267 102.597 108.762 103.425C110.256 104.252 111.554 105.394 112.566 106.771L113.172 107.595C114.356 108.393 115.412 109.367 116.303 110.483C118.717 113.477 119.944 117.256 119.752 121.098C119.786 122.968 119.432 124.824 118.712 126.55C117.992 128.275 116.921 129.832 115.567 131.121C113.775 132.796 111.665 134.092 109.362 134.934C109.218 134.934 109.131 135.078 109.059 135.078C113.172 144.206 118.107 154.749 122.133 163.804H90.1563V160.063H89.5647V163.876L62.74 163.732V159.991H59.0027L59.2913 121.401H63.0286V120.723H59.2913L59.1759 101.977ZM59.9984 120.073H73.6055L73.4468 122.254H59.9984L59.7098 159.341L85.0338 159.486L85.1781 144.913L87.1261 144.827V159.413L117.241 159.341L104.254 130.847L105.38 130.471C107.523 129.641 109.484 128.4 111.152 126.817C112.424 125.602 113.433 124.138 114.116 122.515C114.799 120.893 115.14 119.147 115.12 117.386C115.279 113.729 114.111 110.138 111.83 107.277C110.882 105.997 109.672 104.934 108.281 104.159C106.89 103.385 105.35 102.916 103.764 102.785H59.9984V120.073Z" fill="#2B2B2B"/>
<path d="M155.234 102.063L199.966 101.832C202.089 101.993 204.148 102.635 205.985 103.711C207.823 104.788 209.392 106.269 210.572 108.042C212.889 109.787 214.754 112.063 216.01 114.68C217.265 117.296 217.875 120.176 217.787 123.077C217.926 127.869 216.541 132.582 213.833 136.537C211.207 140.046 208.292 141.837 205.016 141.909L189.476 141.996V163.905H159.173L159.101 160.164H155.451L155.075 123.293H158.957V122.398H155.234V102.063ZM155.985 121.575H169.058L168.986 123.9H155.826L156.201 159.269L185.06 159.341V137.432H201.351C204.41 137.36 207.123 135.714 209.562 132.349C212.166 128.525 213.499 123.976 213.371 119.351C213.371 108.721 205.68 102.598 200.009 102.598L155.999 102.814L155.985 121.575Z" fill="#2B2B2B"/>
<path d="M217.729 101.832H243.948L243.876 105.573H247.685L247.31 133.461C254.409 133.461 261.667 133.533 268.68 133.533L268.608 137.273H272.417L272.201 164.266L221.466 164.049V160.309H217.729V101.832ZM218.479 159.486L267.713 159.717L267.944 134.212H242.837L243.255 102.54H218.523L218.479 159.486Z" fill="#2B2B2B"/>
<path d="M272.417 101.688H301.94V105.428H305.663L305.591 164.208H276.227V160.468H272.49L272.417 101.688ZM273.24 159.789H301.118V102.511L273.096 102.424L273.24 159.789Z" fill="#2B2B2B"/>
<path d="M335.85 100.041C345.201 100.041 351.925 103.103 356.052 106.699C357.526 107.881 358.879 109.207 360.092 110.656C361.519 111.838 362.819 113.164 363.974 114.614C364.496 115.207 364.978 115.834 365.417 116.491C365.801 116.989 366.148 117.516 366.455 118.065C366.758 118.513 367.422 119.509 367.422 119.509L346.355 130.052C350.77 131.497 355.244 132.941 359.587 134.385C362.877 135.512 364.594 135.959 364.291 136.855L363.916 138.299C366.802 139.266 368.245 139.743 368.028 140.537C367.061 145.101 360.337 165.595 340.165 164.916C336.001 164.911 331.88 164.076 328.042 162.459C324.204 160.842 320.727 158.476 317.813 155.5L316.702 154.301C315.771 153.513 314.894 152.664 314.076 151.759C308.947 146.029 306.035 138.653 305.865 130.962C305.591 114.614 316.846 100.258 335.85 100.041ZM314.566 151.268C317.415 154.168 320.81 156.475 324.555 158.054C328.3 159.633 332.32 160.453 336.384 160.468C356.773 161.132 362.906 140.046 363.497 136.681C362.182 135.948 360.775 135.394 359.313 135.035L337.495 128.088L362.531 115.523C362.458 115.523 361.477 113.805 360.958 113.126C360.553 112.498 360.105 111.9 359.616 111.335C358.445 109.822 357.087 108.464 355.575 107.291C351.622 103.782 345.114 100.792 335.85 100.792C317.25 101.009 306.342 114.989 306.572 130.991C306.721 138.491 309.558 145.688 314.566 151.268Z" fill="#2B2B2B"/>
<path d="M368.057 101.832H411.837L411.764 105.573H415.574L415.43 122.701H419.917L419.831 126.442H423.626L423.467 139.743H424.91V143.483H428.633V164.049L371.708 164.122V160.381H367.97L368.057 101.832ZM368.735 159.601L424.174 159.514V140.451H398.922L398.994 138.212L419.008 138.429L419.167 123.322L398.027 123.178L398.1 121.242L410.942 121.387L411.101 102.468H368.793L368.735 159.601Z" fill="#2B2B2B"/>
<path d="M3.89597 242.861V239.134H0.158691L0.302997 180.427L57.6031 180.571V184.312H61.3404V207.419L43.5631 207.492C43.5631 213.023 43.5631 219.045 43.5631 224.548H34.0828C34.0828 230.527 34.0828 237.04 34.0828 242.947L3.89597 242.861ZM29.7395 238.456L29.6673 220.056H39.162L39.0755 203.014L56.8672 202.928V181.264L1.05332 181.12L0.894596 238.326L29.7395 238.456Z" fill="#2B2B2B"/>
<path d="M61.4416 180.73H106.173C107.876 180.854 109.531 181.345 111.026 182.17C112.52 182.996 113.819 184.135 114.831 185.51L115.423 186.334C116.611 187.131 117.672 188.105 118.568 189.222C120.978 192.218 122.201 195.997 122.003 199.837C122.041 201.707 121.689 203.565 120.968 205.291C120.247 207.017 119.175 208.573 117.818 209.86C116.031 211.541 113.919 212.838 111.613 213.673C111.469 213.673 111.397 213.817 111.325 213.817C115.423 222.945 120.358 233.487 124.398 242.543H92.422L92.3499 238.802H91.7438V242.615L64.9191 242.471V238.73H61.1819L61.4849 200.14H65.2221V199.462H61.4849L61.4416 180.73ZM62.2641 198.826H75.8712L75.7269 200.993H62.2785L61.9755 238.08L87.2995 238.225L87.4582 223.652H89.3918L89.4784 238.225L119.579 238.152L106.592 209.658L107.717 209.282C109.86 208.452 111.821 207.21 113.489 205.628C114.757 204.41 115.762 202.945 116.442 201.323C117.122 199.701 117.463 197.957 117.443 196.198C117.611 192.542 116.447 188.95 114.167 186.088C113.217 184.808 112.004 183.745 110.611 182.97C109.218 182.196 107.675 181.727 106.087 181.597H62.2496L62.2641 198.826Z" fill="#2B2B2B"/>
<path d="M187.095 242.63V238.889H183.358V179.517L187.095 183.258L209.663 205.917C209.663 197.83 209.519 189.092 209.519 181.163L240.369 180.528V184.341L244.106 184.268L243.962 242.745H209.432V239.005H208.393V242.817L187.095 242.63ZM203.905 238.297V220.966L206.445 220.822V238.297L239.474 238.384L239.619 181.394L210.254 181.987L210.413 207.867L184.093 181.322V238.153L203.905 238.297Z" fill="#2B2B2B"/>
<path d="M244.034 180.73L299.401 180.643V184.384H303.124L303.051 209.889H291.104L290.656 242.644H259.719V238.903H255.982L255.838 209.658H247.916L247.844 205.932H244.178L244.034 180.73ZM244.929 205.181H256.588L256.732 238.152H286.169L286.616 205.397H298.578L298.65 181.394L244.785 181.467L244.929 205.181Z" fill="#2B2B2B"/>
<path d="M303.138 180.528H346.918V184.268H350.727L350.568 201.397H355.056L354.984 205.138H358.692L358.548 218.439H359.991V222.179H363.728V242.745L306.789 242.817V239.091H303.052L303.138 180.528ZM303.802 238.297H359.241V219.233H333.989L334.061 216.995L354.089 217.226L354.233 202.119L333.094 201.96L333.166 200.025L346.023 200.169L346.167 181.25H303.86L303.802 238.297Z" fill="#2B2B2B"/>
<path d="M363.728 180.427H393.237V184.167H396.974V242.947H367.538V239.207H363.8L363.728 180.427ZM364.551 238.528H392.414L392.487 181.25H364.479L364.551 238.528Z" fill="#2B2B2B"/>
<path d="M397.046 180.73H441.778C443.481 180.851 445.138 181.341 446.633 182.167C448.128 182.992 449.425 184.133 450.436 185.51L451.042 186.334C452.226 187.132 453.282 188.106 454.173 189.222C456.587 192.216 457.814 195.995 457.622 199.837C457.657 201.707 457.303 203.563 456.582 205.289C455.862 207.014 454.791 208.571 453.437 209.86C451.646 211.535 449.535 212.831 447.233 213.673C447.088 213.673 447.002 213.817 446.93 213.817C451.042 222.945 455.977 233.488 460.003 242.543H428.027L427.955 238.802H427.363V242.615L400.538 242.63V238.889H396.801L397.089 200.299H400.827V199.62H397.089L397.046 180.73ZM397.869 198.826H411.476L411.317 200.993H397.869L397.58 238.08L422.904 238.225L423.048 223.652H424.996L425.069 238.225L455.183 238.152L442.197 209.658L443.322 209.282C445.466 208.453 447.426 207.211 449.094 205.629C450.367 204.413 451.376 202.949 452.059 201.326C452.741 199.704 453.083 197.958 453.062 196.198C453.218 192.541 452.05 188.951 449.772 186.088C448.825 184.808 447.615 183.745 446.224 182.97C444.833 182.196 443.292 181.728 441.706 181.597H397.797L397.869 198.826Z" fill="#2B2B2B"/>
<path d="M507.318 179.748L509.035 183.561H511.055L538.471 242.196H502.181L502.022 238.456H500.579L500.651 242.196L463.134 241.965L464.923 238.297H459.397L488.386 180.124L507.318 179.748ZM495.774 217.818L498.66 217.659L499.194 237.633H533.551L506.885 180.528L488.804 180.759L460.566 237.43L496.12 237.662L495.774 217.818Z" fill="#2B2B2B"/>
<path d="M149.498 262.641C149.52 262.883 149.48 263.126 149.383 263.349L149.137 263.984C149.065 264.172 148.993 264.389 148.921 264.62C148.868 264.877 148.868 265.142 148.921 265.4C148.56 265.862 148.214 266.309 147.853 266.743C147.485 267.185 147.17 267.67 146.915 268.187C146.793 268.17 146.668 268.184 146.553 268.226C146.437 268.269 146.333 268.34 146.251 268.432C146.098 268.633 145.989 268.865 145.934 269.111C145.388 269.33 144.895 269.665 144.491 270.093C144.082 270.501 143.724 270.957 143.423 271.451C142.029 272.143 140.71 272.976 139.484 273.935C138.267 274.901 137.171 276.011 136.223 277.242C136.705 277.203 137.19 277.227 137.666 277.314C138.156 277.314 138.647 277.473 139.109 277.574C139.57 277.675 140.075 277.748 140.552 277.805C141.029 277.885 141.517 277.885 141.995 277.805C142.373 278.124 142.803 278.378 143.264 278.556C143.726 278.744 144.188 278.932 144.707 279.091C145.175 279.244 145.629 279.438 146.064 279.669C146.502 279.882 146.905 280.159 147.261 280.492C147.269 280.544 147.269 280.598 147.261 280.651C147.253 280.698 147.253 280.747 147.261 280.795C147.28 281.015 147.35 281.227 147.463 281.416C147.584 281.602 147.653 281.816 147.665 282.037C147.545 282.271 147.439 282.512 147.348 282.759C147.256 283.001 147.14 283.233 147.002 283.452C146.865 283.649 146.7 283.824 146.511 283.972C146.287 284.136 146.023 284.235 145.746 284.261C145.663 284.691 145.458 285.087 145.155 285.402C144.863 285.687 144.544 285.944 144.202 286.168L143.149 286.846C142.805 287.074 142.511 287.369 142.283 287.713C141.47 287.954 140.683 288.273 139.931 288.666C139.175 289.061 138.503 289.601 137.954 290.255L136.713 290.515C136.301 290.612 135.881 290.675 135.458 290.702C134.96 290.755 134.458 290.66 134.015 290.428C133.809 290.292 133.638 290.108 133.517 289.891C133.397 289.675 133.33 289.433 133.322 289.186C133.388 288.987 133.502 288.809 133.654 288.666L134.159 288.218C134.333 288.075 134.497 287.921 134.65 287.756C134.795 287.588 134.903 287.391 134.967 287.178H135.415C135.694 287.169 135.965 287.079 136.194 286.919L136.713 286.471C136.891 286.316 137.085 286.181 137.291 286.066C137.55 285.922 137.847 285.862 138.142 285.893C138.312 285.52 138.601 285.215 138.964 285.027C139.339 284.819 139.724 284.631 140.119 284.463C140.515 284.293 140.896 284.09 141.259 283.857C141.611 283.632 141.865 283.281 141.966 282.875C141.812 282.674 141.614 282.511 141.389 282.398C141.146 282.29 140.895 282.203 140.638 282.138L139.845 281.936C139.609 281.883 139.381 281.8 139.166 281.69C138.887 281.787 138.596 281.845 138.301 281.864C137.74 281.929 137.173 281.929 136.612 281.864C136.051 281.813 135.486 281.813 134.924 281.864C134.459 281.887 134.001 281.984 133.568 282.153L133.135 282.066L132.687 281.921C132.074 282.207 131.414 282.379 130.739 282.427L128.07 282.586C127.849 282.601 127.631 282.645 127.421 282.716C127.149 283.272 127.029 283.89 127.074 284.507C127.103 284.962 127.201 285.41 127.363 285.835C127.536 286.254 127.695 286.687 127.868 287.15C128.475 287.632 129.022 288.184 129.498 288.796C129.991 289.409 130.279 290.162 130.321 290.948C130.336 291.102 130.336 291.256 130.321 291.41C129.987 291.226 129.603 291.151 129.224 291.193C128.854 291.212 128.488 291.29 128.142 291.425C127.794 291.556 127.437 291.662 127.074 291.742L126.108 291.367C125.764 291.233 125.435 291.064 125.126 290.861C124.881 290.414 124.636 289.98 124.376 289.576C124.129 289.149 123.828 288.756 123.481 288.406V288.247C123.428 287.276 123.298 286.31 123.092 285.359C122.876 284.409 122.736 283.443 122.673 282.47C122.673 282.023 122.673 281.575 122.673 281.127C122.683 280.681 122.791 280.242 122.991 279.842C122.857 279.165 122.77 278.48 122.731 277.791C122.643 276.348 122.643 274.901 122.731 273.458C122.809 272.015 122.809 270.569 122.731 269.126C122.717 268.826 122.688 268.527 122.644 268.23C122.644 267.927 122.572 267.624 122.529 267.32H122.37C122.021 267.336 121.675 267.404 121.346 267.523L120.379 267.898C120.062 268.028 119.73 268.158 119.369 268.274C119.029 268.391 118.674 268.459 118.316 268.476C118.128 268.58 117.954 268.706 117.796 268.851C117.673 268.961 117.543 269.063 117.406 269.155C117.267 269.257 117.11 269.335 116.945 269.386C116.742 269.462 116.525 269.491 116.31 269.472C116.088 269.644 115.856 269.803 115.617 269.949C115.384 270.092 115.137 270.213 114.881 270.31C114.728 270.37 114.59 270.464 114.477 270.584L114.174 270.888L113.813 271.162C113.657 271.26 113.478 271.314 113.294 271.321C113.155 271.338 113.015 271.338 112.876 271.321C112.701 271.184 112.545 271.024 112.414 270.844C112.284 270.671 112.154 270.483 112.01 270.324C111.88 270.148 111.73 269.989 111.562 269.848C111.401 269.701 111.209 269.592 111 269.53C111.084 269.429 111.125 269.3 111.115 269.169C111.115 269.082 111.115 268.967 111.115 268.822C111.115 268.822 111.115 268.692 111.115 268.664C111.208 268.197 111.439 267.769 111.779 267.436C112.125 267.127 112.514 266.869 112.933 266.671L114.232 266.107C114.658 265.96 115.069 265.772 115.458 265.544C116.44 265.518 117.412 265.348 118.344 265.039C119.264 264.732 120.153 264.341 120.999 263.869C121.153 263.938 121.322 263.968 121.49 263.955C121.629 263.969 121.769 263.969 121.909 263.955L122.313 263.84C122.602 263.556 122.96 263.352 123.351 263.248C123.727 263.132 124.102 263.045 124.477 262.959C124.852 262.872 125.227 262.8 125.574 262.713C125.915 262.624 126.231 262.455 126.497 262.222H126.67C127.344 262.177 128.006 262.026 128.633 261.775C129.249 261.514 129.912 261.386 130.581 261.399C131.023 261.098 131.51 260.869 132.024 260.72C132.552 260.61 133.087 260.538 133.625 260.504C133.801 260.476 133.965 260.401 134.102 260.287C134.306 260.147 134.546 260.067 134.794 260.056H135.083C135.185 260.058 135.286 260.033 135.375 259.982C135.464 259.931 135.538 259.857 135.588 259.767C135.674 259.608 135.92 259.507 136.324 259.478H137.363C137.44 259.484 137.517 259.463 137.58 259.418C137.643 259.373 137.689 259.308 137.709 259.233C137.735 259.161 137.786 259.102 137.852 259.065C137.918 259.028 137.995 259.016 138.07 259.031C138.123 259.085 138.19 259.124 138.263 259.145C138.337 259.165 138.414 259.165 138.488 259.146H138.935C139.138 259.146 139.239 259.146 139.282 259.291C139.713 258.979 140.204 258.763 140.725 258.655C141.228 258.542 141.74 258.47 142.254 258.438H143.452C143.698 258.254 143.996 258.153 144.303 258.15C144.625 258.156 144.942 258.22 145.241 258.337C145.674 258.467 146.136 258.641 146.612 258.828C147.065 259.001 147.504 259.208 147.925 259.449C148.214 259.573 148.467 259.766 148.661 260.013C148.739 260.118 148.784 260.243 148.791 260.374C148.811 260.543 148.855 260.708 148.921 260.865C149.08 261.182 149.238 261.486 149.368 261.775C149.469 262.052 149.513 262.346 149.498 262.641ZM144.967 263.378C144.973 263.315 144.973 263.252 144.967 263.19C144.961 263.127 144.961 263.065 144.967 263.002C144.803 262.848 144.606 262.734 144.39 262.67C144.143 262.602 143.893 262.549 143.64 262.511L142.846 262.424C142.61 262.403 142.378 262.355 142.153 262.28C141.554 262.517 140.921 262.654 140.277 262.684C139.703 262.729 139.126 262.665 138.575 262.497C138.323 262.774 138.012 262.991 137.666 263.132C137.283 263.294 136.887 263.425 136.482 263.522C136.05 263.609 135.631 263.681 135.213 263.724L134.087 263.811C133.881 263.864 133.688 263.963 133.524 264.1C133.307 264.257 133.054 264.356 132.788 264.389C132.704 264.394 132.619 264.381 132.539 264.351C132.46 264.321 132.387 264.275 132.327 264.215C132.028 264.457 131.692 264.647 131.331 264.779C130.898 264.937 130.465 265.082 130.004 265.212L128.561 265.602C128.084 265.746 127.695 265.876 127.363 266.006C127.07 266.776 126.928 267.595 126.944 268.418C126.944 269.256 127.017 270.064 127.06 270.859C127.089 271.311 127.089 271.764 127.06 272.216C127.028 272.697 127.028 273.18 127.06 273.661C127.075 273.888 127.104 274.115 127.146 274.339C127.194 274.575 127.292 274.797 127.435 274.989C127.239 275.164 127.103 275.397 127.045 275.654C127.01 275.912 127.01 276.175 127.045 276.434C127.068 276.707 127.116 276.978 127.19 277.242C127.19 277.488 127.32 277.719 127.392 277.935C128.21 277.821 129.01 277.602 129.773 277.286C130.465 277.002 131.131 276.659 131.764 276.26C132.394 275.854 132.993 275.4 133.553 274.903L135.357 273.299C135.597 273.253 135.823 273.155 136.021 273.011C136.219 272.884 136.449 272.814 136.684 272.809C136.714 272.637 136.779 272.473 136.876 272.329C136.973 272.185 137.099 272.062 137.247 271.971C137.538 271.805 137.771 271.553 137.911 271.249C138.204 271.155 138.481 271.019 138.734 270.844L139.383 270.353C139.597 270.171 139.829 270.012 140.075 269.877C140.338 269.712 140.634 269.608 140.941 269.573C141.374 268.996 141.821 268.418 142.298 267.826C142.766 267.238 143.344 266.748 144 266.382C144.079 266.118 144.191 265.866 144.332 265.631L144.679 264.995C144.786 264.778 144.873 264.55 144.938 264.316C145.015 264.004 145.025 263.679 144.967 263.363V263.378Z" fill="#2B2B2B"/>
<path d="M171.821 261.919C171.829 262.039 171.809 262.16 171.761 262.27C171.713 262.381 171.64 262.478 171.546 262.554C171.359 262.742 171.258 262.872 171.272 262.944C171.268 263.068 171.304 263.189 171.373 263.291C171.427 263.357 171.462 263.437 171.474 263.522V263.724C171.226 263.991 171.035 264.306 170.912 264.649C170.783 264.969 170.691 265.304 170.637 265.645C170.637 266.006 170.522 266.353 170.479 266.714C170.435 267.065 170.367 267.412 170.277 267.754C170.174 268.074 170.012 268.373 169.8 268.635C169.591 268.884 169.425 269.167 169.31 269.472C169.125 269.978 168.989 270.5 168.906 271.032C168.823 271.555 168.615 272.051 168.3 272.476V272.678C168.292 272.77 168.306 272.863 168.341 272.949C168.376 273.034 168.431 273.11 168.502 273.17C168.002 273.945 167.636 274.8 167.42 275.697C167.168 276.684 166.985 277.688 166.871 278.701C166.746 279.741 166.645 280.781 166.568 281.82C166.496 282.86 166.381 283.784 166.251 284.622C166.421 285.211 166.669 285.774 166.987 286.297C167.304 286.803 167.622 287.352 167.939 287.901C168.491 288.009 169.032 288.168 169.555 288.377C170.073 288.592 170.49 288.994 170.724 289.504C170.727 289.982 170.564 290.447 170.262 290.818C169.936 291.18 169.584 291.517 169.209 291.829L168.459 291.612C168.173 291.549 167.878 291.549 167.593 291.612C167.112 291.274 166.606 290.975 166.078 290.717C165.543 290.444 165.093 290.03 164.779 289.518C164.749 289.48 164.709 289.45 164.663 289.432C164.617 289.414 164.568 289.409 164.519 289.417H164.158C164 289.099 163.812 288.767 163.596 288.406C163.379 288.045 163.163 287.67 162.946 287.28C162.733 286.908 162.545 286.522 162.384 286.124C162.234 285.786 162.141 285.424 162.109 285.055C162.023 283.654 162.066 282.247 162.239 280.853C162.413 279.444 162.456 278.023 162.369 276.607V276.202C161.818 276.374 161.287 276.601 160.782 276.881C160.276 277.154 159.744 277.376 159.195 277.545C159.007 277.618 158.892 277.719 158.877 277.863C158.867 277.933 158.843 278 158.806 278.059C158.768 278.119 158.719 278.17 158.661 278.21L157.882 278.311H157.175C156.713 278.311 156.222 278.311 155.732 278.311C155.223 278.296 154.716 278.238 154.216 278.138C153.716 278.04 153.23 277.875 152.773 277.647C152.324 277.428 151.919 277.129 151.576 276.766L151.388 276.867C151.307 276.879 151.224 276.879 151.143 276.867C151.057 276.881 150.969 276.881 150.883 276.867H150.681C150.441 276.578 150.242 276.257 150.09 275.913L149.599 274.874C149.44 274.527 149.267 274.195 149.094 273.877C148.899 273.553 148.655 273.261 148.372 273.011C148.259 272.536 148.187 272.053 148.156 271.566C148.127 271.086 148.127 270.603 148.156 270.122C148.2 269.637 148.273 269.155 148.372 268.678C148.244 268.351 148.147 268.012 148.084 267.667C148.084 267.32 147.983 266.959 147.954 266.613C147.925 266.185 147.925 265.755 147.954 265.327C148.007 264.898 148.124 264.48 148.3 264.085C148.464 263.704 148.716 263.367 149.036 263.103C149.388 262.829 149.817 262.673 150.263 262.656C150.804 262.622 151.345 262.742 151.821 263.002C152.297 263.262 152.773 263.522 153.264 263.797C153.336 264.114 153.394 264.446 153.437 264.75C153.481 265.053 153.524 265.4 153.553 265.761C153.553 266.411 153.553 267.089 153.553 267.754C153.517 268.437 153.517 269.121 153.553 269.804C153.589 270.479 153.721 271.145 153.942 271.783C154.177 272.414 154.54 272.99 155.01 273.473H155.183C155.38 273.427 155.586 273.458 155.76 273.56C155.94 273.662 156.146 273.707 156.352 273.689C156.44 273.685 156.526 273.659 156.601 273.614C156.677 273.568 156.74 273.505 156.785 273.429C156.826 273.358 156.885 273.298 156.955 273.255C157.026 273.212 157.106 273.188 157.189 273.184C157.312 273.15 157.441 273.15 157.564 273.184C157.631 273.198 157.7 273.198 157.766 273.184C158.13 273.133 158.477 272.994 158.776 272.78C159.096 272.615 159.343 272.337 159.469 272C159.596 272.072 159.741 272.107 159.887 272.101C160.109 272.082 160.321 271.996 160.493 271.855C160.703 271.7 160.954 271.61 161.215 271.595C161.388 271.595 161.431 271.48 161.388 271.278C161.345 271.075 161.388 270.945 161.503 270.888C161.875 270.695 162.228 270.468 162.557 270.209C162.836 269.98 163.153 269.804 163.495 269.689C163.602 269.326 163.753 268.977 163.942 268.649C164.13 268.317 164.317 268.014 164.519 267.725C164.561 267.093 164.692 266.471 164.909 265.876C165.111 265.284 165.342 264.692 165.573 264.1C165.803 263.508 166.034 262.916 166.251 262.323C166.456 261.731 166.582 261.114 166.626 260.489C166.902 260.181 167.126 259.83 167.29 259.449C167.443 259.091 167.578 258.724 167.694 258.352C168.024 258.236 168.369 258.168 168.718 258.15L169.772 258.048H170.479C170.565 258.218 170.689 258.366 170.839 258.482L171.272 258.872C171.062 259.225 170.957 259.631 170.969 260.041C171 260.349 171.088 260.648 171.229 260.923C171.401 261.269 171.599 261.602 171.821 261.919Z" fill="#2B2B2B"/>
<path d="M213.017 282.543C213.058 282.975 212.962 283.409 212.743 283.785C212.524 284.17 212.457 284.623 212.555 285.056C212.192 285.292 211.886 285.608 211.661 285.98C211.431 286.352 211.224 286.738 211.04 287.135C209.293 288.427 207.399 289.508 205.398 290.356C203.389 291.195 201.252 291.683 199.078 291.8C199.005 291.805 198.932 291.793 198.865 291.766C198.797 291.738 198.737 291.696 198.689 291.641L198.342 291.266C198.224 291.138 198.099 291.017 197.967 290.905C197.908 290.848 197.838 290.804 197.761 290.777C197.683 290.75 197.601 290.739 197.52 290.746C197.36 290.749 197.204 290.8 197.072 290.89C197.065 290.842 197.065 290.794 197.072 290.746C197.08 290.698 197.08 290.649 197.072 290.601C197.045 290.263 196.982 289.93 196.885 289.605C196.788 289.28 196.725 288.946 196.697 288.608C196.664 288.279 196.714 287.946 196.842 287.641H197.332C197.605 287.632 197.876 287.593 198.14 287.525C198.417 287.474 198.696 287.44 198.977 287.424C199.269 287.4 199.561 287.466 199.814 287.612C201.279 287.474 202.712 287.099 204.056 286.5C205.384 285.908 206.726 285.316 208.097 284.738C208.286 284.428 208.395 284.075 208.414 283.712C208.429 283.344 208.512 282.981 208.659 282.644C207.972 282.114 207.214 281.681 206.408 281.358C205.598 281.053 204.718 280.983 203.869 281.156C203.291 280.847 202.648 280.679 201.993 280.665C201.344 280.665 200.694 280.665 200.031 280.535L199.511 280.463C199.324 280.448 199.136 280.448 198.948 280.463C198.811 280.48 198.679 280.524 198.559 280.593C198.537 280.613 198.519 280.638 198.508 280.665C198.496 280.692 198.489 280.722 198.489 280.752C198.489 280.782 198.496 280.811 198.508 280.838C198.519 280.866 198.537 280.89 198.559 280.911C198.492 280.815 198.406 280.733 198.307 280.671C198.208 280.609 198.097 280.568 197.982 280.55C197.752 280.533 197.534 280.442 197.361 280.29C196.569 280.3 195.781 280.188 195.023 279.957L192.787 279.206C192.58 279.139 192.367 279.091 192.152 279.062C191.936 279.035 191.726 278.972 191.531 278.874C191.048 278.673 190.618 278.361 190.276 277.964C189.945 277.56 189.677 277.107 189.482 276.621C189.265 276.12 189.101 275.597 188.992 275.061C188.876 274.527 188.761 274.022 188.646 273.617C188.87 273.148 189.068 272.665 189.237 272.173C189.413 271.703 189.553 271.22 189.656 270.729C189.812 270.633 189.976 270.551 190.146 270.483L190.666 270.252C190.649 270.181 190.649 270.107 190.666 270.036C190.658 269.887 190.699 269.74 190.781 269.617C190.817 269.555 190.835 269.485 190.835 269.414C190.835 269.343 190.817 269.274 190.781 269.212C191.344 268.62 191.892 268.014 192.412 267.393C192.939 266.765 193.39 266.077 193.754 265.342C194.125 265.203 194.454 264.969 194.706 264.663L195.384 263.782C195.613 263.476 195.875 263.195 196.163 262.944C196.488 262.68 196.876 262.506 197.289 262.439C197.382 262.237 197.526 262.062 197.707 261.933L198.256 261.558C198.438 261.435 198.611 261.3 198.775 261.154C198.933 260.981 199.047 260.773 199.107 260.547C199.524 260.526 199.932 260.417 200.305 260.229C200.665 260.041 201.012 259.839 201.358 259.623C201.704 259.406 202.051 259.204 202.411 259.016C202.784 258.828 203.192 258.72 203.609 258.698H203.941H204.316C204.517 258.871 204.667 259.096 204.749 259.348C204.837 259.621 204.899 259.902 204.937 260.186C204.937 260.475 205.023 260.778 205.067 261.081C205.086 261.359 205.15 261.632 205.254 261.89C205.038 262.381 204.792 262.858 204.547 263.334C204.298 263.802 203.93 264.196 203.479 264.475H203.393C203.21 264.518 203.018 264.487 202.859 264.389C202.679 264.287 202.473 264.241 202.267 264.259C202.207 264.258 202.147 264.271 202.093 264.296C202.038 264.321 201.989 264.358 201.95 264.403L201.762 264.62L201.546 264.793C201.485 264.822 201.418 264.838 201.351 264.838C201.283 264.838 201.217 264.822 201.156 264.793C200.766 264.952 200.637 265.197 200.738 265.53C200.268 265.592 199.823 265.782 199.453 266.078C199.121 266.361 198.812 266.67 198.53 267.003C198.241 267.335 197.953 267.638 197.678 267.927C197.393 268.205 197.022 268.378 196.625 268.418C196.228 269.26 195.702 270.035 195.067 270.714C194.44 271.373 193.923 272.129 193.537 272.953C193.628 273.176 193.696 273.409 193.739 273.646C193.739 273.892 193.84 274.152 193.912 274.412C194.18 274.73 194.496 275.003 194.85 275.22L195.904 275.899H196.034C196.552 275.855 197.074 275.924 197.563 276.101C198.022 276.28 198.515 276.354 199.006 276.318C199.25 276.31 199.489 276.241 199.699 276.116C200.42 276.231 201.142 276.332 201.834 276.39C202.527 276.448 203.277 276.491 203.97 276.506C204.335 276.535 204.702 276.535 205.067 276.506C205.416 276.461 205.77 276.461 206.12 276.506C206.433 276.572 206.741 276.659 207.043 276.766C207.361 276.867 207.664 276.968 207.967 277.098C208.598 277.32 209.215 277.581 209.814 277.878C210.384 278.168 210.913 278.532 211.387 278.961C211.851 279.365 212.233 279.856 212.512 280.405C212.835 281.072 213.007 281.802 213.017 282.543Z" fill="#2B2B2B"/>
<path d="M246.148 282.658C246.107 283.016 245.95 283.351 245.7 283.611C245.441 283.87 245.138 284.08 244.806 284.232C244.464 284.384 244.106 284.496 243.738 284.564L242.728 284.694H241.949C241.819 284.694 241.747 284.781 241.761 284.911C241.766 284.975 241.75 285.039 241.717 285.093C241.683 285.148 241.633 285.19 241.574 285.214L241.155 285.113H240.737H240.188L239.669 285.2C239.512 285.236 239.349 285.236 239.193 285.2C239.096 285.159 239.008 285.1 238.933 285.027C238.854 284.962 238.781 284.889 238.716 284.81C238.625 284.729 238.516 284.67 238.399 284.637C238.325 284.601 238.243 284.582 238.161 284.582C238.078 284.582 237.997 284.601 237.923 284.637C237.793 284.637 237.605 284.637 237.346 284.42C236.994 284.157 236.691 283.834 236.451 283.467C236.191 283.077 235.932 282.687 235.686 282.254C235.441 281.82 235.181 281.401 234.907 280.983C234.645 280.576 234.33 280.207 233.969 279.885H233.637C233.422 279.885 233.212 279.951 233.036 280.075C232.861 280.2 232.728 280.375 232.656 280.578C232.505 280.492 232.361 280.396 232.223 280.289C232.078 280.176 231.918 280.084 231.747 280.015C231.114 280.252 230.468 280.454 229.813 280.622C229.144 280.804 228.457 280.915 227.764 280.954H227.187C227.01 280.981 226.83 280.981 226.653 280.954C226.396 281.06 226.158 281.206 225.946 281.387C225.733 281.549 225.477 281.645 225.21 281.662C225.012 281.654 224.816 281.61 224.633 281.531C224.46 281.531 224.388 281.618 224.417 281.748C224.446 281.878 224.345 281.965 224.157 281.979H223.796C223.407 281.979 223.031 281.979 222.656 282.095L221.531 282.21C220.989 282.242 220.446 282.203 219.915 282.095C219.789 282.189 219.639 282.245 219.482 282.254C219.372 282.311 219.289 282.41 219.251 282.528L219.107 282.875C219.051 282.974 218.977 283.062 218.89 283.134C218.834 283.174 218.771 283.202 218.704 283.217C218.637 283.232 218.568 283.233 218.501 283.221C218.481 283.525 218.353 283.813 218.14 284.03C218.032 284.148 217.952 284.288 217.904 284.44C217.857 284.592 217.844 284.753 217.866 284.911C217.592 285.083 217.356 285.309 217.173 285.575C216.985 285.835 216.812 286.11 216.639 286.398C216.466 286.687 216.278 286.947 216.091 287.207C215.9 287.47 215.654 287.687 215.369 287.843C215.312 287.965 215.282 288.098 215.282 288.233C215.282 288.368 215.312 288.501 215.369 288.623C215.049 288.912 214.69 289.155 214.302 289.345C213.924 289.555 213.506 289.683 213.075 289.72C212.699 289.747 212.325 289.646 212.013 289.434C211.702 289.222 211.471 288.91 211.358 288.55C211.358 288.276 211.358 287.973 211.358 287.655C211.385 287.35 211.428 287.046 211.488 286.745C211.55 286.458 211.663 286.184 211.82 285.936C211.973 285.681 212.206 285.483 212.483 285.373C212.486 285.272 212.461 285.173 212.41 285.086C212.359 284.999 212.284 284.928 212.195 284.882C212.111 284.83 212.045 284.754 212.004 284.664C211.963 284.574 211.949 284.474 211.964 284.377C212.659 284.007 213.284 283.518 213.811 282.932C214.334 282.325 214.816 281.683 215.254 281.012C215.658 280.333 216.076 279.654 216.509 278.961C216.925 278.292 217.408 277.667 217.952 277.098V276.231C218.699 275.359 219.198 274.301 219.395 273.17C219.52 273.152 219.639 273.101 219.738 273.022C219.837 272.944 219.913 272.84 219.958 272.722C220.047 272.467 220.081 272.196 220.059 271.928C220.119 271.929 220.178 271.91 220.225 271.873C220.272 271.836 220.305 271.784 220.319 271.725C220.319 271.61 220.463 271.566 220.651 271.61C220.848 270.975 221.084 270.353 221.358 269.747C221.632 269.183 221.891 268.606 222.166 268.028C222.429 267.439 222.66 266.837 222.858 266.223C223.056 265.554 223.186 264.867 223.248 264.172C223.405 264.172 223.555 264.11 223.666 263.999C223.777 263.888 223.839 263.737 223.839 263.58C223.839 263.233 223.839 262.93 223.926 262.641C224.318 262.232 224.609 261.738 224.777 261.197C224.951 260.677 225.095 260.114 225.225 259.536C225.355 258.958 225.499 258.395 225.672 257.817C225.839 257.253 226.108 256.725 226.466 256.258V256.142C226.469 256.086 226.454 256.03 226.422 255.983C226.391 255.936 226.346 255.901 226.293 255.882C226.177 255.882 226.119 255.767 226.105 255.622C226.115 255.594 226.115 255.564 226.105 255.535C226.419 255.392 226.667 255.134 226.798 254.813C226.935 254.498 227.181 254.242 227.49 254.091C227.953 254.454 228.49 254.71 229.063 254.842C229.642 254.919 230.225 254.958 230.809 254.958C231.184 255.313 231.424 255.788 231.487 256.301C231.561 256.832 231.687 257.354 231.862 257.861C232.137 258.727 232.425 259.565 232.743 260.388C233.053 261.216 233.304 262.066 233.493 262.93C233.609 263.434 233.793 263.92 234.041 264.374C234.289 264.827 234.469 265.313 234.575 265.818C234.665 266.245 234.695 266.683 234.662 267.118C234.625 267.547 234.71 267.978 234.907 268.36L235.239 268.996C235.391 269.296 235.526 269.605 235.643 269.92C235.758 270.252 235.874 270.57 235.975 270.888C236.249 271.696 236.494 272.577 236.74 273.502C236.95 274.387 237.286 275.238 237.735 276.029C237.883 276.289 238.126 276.481 238.413 276.563C238.733 276.657 239.062 276.711 239.395 276.722C239.745 276.751 240.098 276.751 240.448 276.722L241.328 276.636H241.732C241.899 276.606 242.07 276.606 242.237 276.636C242.34 276.809 242.409 277 242.439 277.199C242.456 277.347 242.438 277.496 242.388 277.637C242.338 277.777 242.257 277.903 242.151 278.008C242.056 278.093 241.982 278.198 241.932 278.315C241.882 278.432 241.858 278.559 241.862 278.686C241.883 278.848 241.953 279 242.064 279.12C241.896 279.105 241.727 279.105 241.559 279.12C240.927 279.162 240.307 279.314 239.727 279.567C239.969 280.001 240.298 280.379 240.693 280.679C241.085 280.974 241.495 281.244 241.92 281.488C242.149 281.27 242.443 281.133 242.757 281.098C243.079 281.081 243.4 281.141 243.695 281.272C243.99 281.4 244.311 281.459 244.633 281.445C244.823 281.447 245.009 281.392 245.167 281.286C245.388 281.502 245.582 281.744 245.744 282.008C245.849 282.242 245.985 282.46 246.148 282.658ZM232.872 276.881C232.836 276.529 232.723 276.188 232.541 275.885C232.391 275.657 232.274 275.409 232.194 275.148C232.053 274.755 231.951 274.348 231.891 273.935C231.825 273.506 231.734 273.082 231.617 272.664C231.372 271.74 231.098 270.83 230.809 269.906C230.518 268.997 230.166 268.109 229.756 267.248C229.846 267.112 229.892 266.95 229.886 266.786V266.656C229.612 266.387 229.409 266.055 229.294 265.688C229.15 265.303 229.02 264.913 228.904 264.519C228.788 264.14 228.638 263.773 228.457 263.421C228.29 263.084 228.023 262.807 227.692 262.627C227.618 262.815 227.589 263.017 227.606 263.219C227.616 263.396 227.649 263.571 227.707 263.739C227.751 263.914 227.78 264.093 227.793 264.273C227.534 264.424 227.338 264.666 227.245 264.952C227.138 265.242 226.941 265.49 226.682 265.659C226.53 266.542 226.263 267.402 225.889 268.216C225.528 269.025 225.153 269.819 224.749 270.613C224.345 271.408 223.955 272.216 223.594 273.025C223.234 273.832 222.958 274.674 222.772 275.538C222.443 275.778 222.208 276.125 222.108 276.52C222.006 276.901 221.967 277.296 221.992 277.69C222.261 277.808 222.551 277.867 222.844 277.863C223.161 277.863 223.479 277.863 223.782 277.863C224.07 277.842 224.359 277.842 224.648 277.863C224.934 277.909 225.201 278.039 225.412 278.239C225.785 278.095 226.172 277.993 226.567 277.935C226.937 277.881 227.289 277.738 227.591 277.517C228.173 277.678 228.779 277.736 229.38 277.69C229.707 277.678 230.031 277.63 230.347 277.545L231.256 277.286C231.47 277.312 231.673 277.392 231.848 277.517C231.938 277.577 232.04 277.616 232.147 277.634C232.254 277.651 232.364 277.646 232.468 277.618C232.582 277.525 232.663 277.399 232.699 277.257C232.718 277.117 232.778 276.986 232.872 276.881Z" fill="#2B2B2B"/>
<path d="M276.681 260.792C276.681 261.182 276.681 261.558 276.681 261.948C276.681 262.338 276.681 262.728 276.681 263.103C276.681 263.479 276.335 263.652 276.176 263.869C276.012 264.099 275.907 264.367 275.873 264.649C275.527 264.942 275.208 265.266 274.92 265.616C274.765 265.767 274.648 265.954 274.58 266.16C274.512 266.367 274.495 266.586 274.531 266.8H273.954C273.665 267.302 273.3 267.755 272.871 268.144C272.451 268.545 272.008 268.921 271.544 269.27L270.101 270.31C269.647 270.643 269.23 271.026 268.86 271.451C268.677 271.487 268.499 271.54 268.326 271.61C268.156 271.658 267.976 271.658 267.807 271.61C266.991 272.211 266.133 272.751 265.238 273.227L262.569 274.599C261.674 275.061 260.779 275.538 259.914 276.043C259.037 276.538 258.202 277.103 257.417 277.733C257.308 277.711 257.195 277.711 257.085 277.733C256.834 277.739 256.585 277.788 256.349 277.878C256.112 277.96 255.864 278.009 255.614 278.022C255.47 278.035 255.325 278.035 255.181 278.022C255.045 278.02 254.911 277.985 254.791 277.921C254.633 277.835 254.496 277.717 254.387 277.574C254.27 277.41 254.178 277.23 254.113 277.04C254.042 276.848 253.989 276.65 253.954 276.448C253.912 276.287 253.888 276.123 253.882 275.957C253.868 275.779 253.868 275.6 253.882 275.422C253.896 275.237 253.925 275.054 253.969 274.874C254.796 274.76 255.597 274.501 256.335 274.108L258.6 272.938C258.769 272.85 258.92 272.733 259.048 272.592C259.162 272.465 259.288 272.349 259.423 272.245C259.559 272.137 259.704 272.041 259.856 271.956C260.04 271.848 260.248 271.788 260.462 271.783H260.592C262.266 270.873 263.896 269.905 265.498 268.894C267.1 267.883 268.687 266.815 270.274 265.746C270.356 265.477 270.472 265.22 270.62 264.981L271.082 264.23C271.236 263.987 271.375 263.737 271.501 263.479C271.615 263.245 271.669 262.987 271.659 262.728C271.642 262.48 271.561 262.241 271.425 262.033C271.288 261.826 271.101 261.657 270.88 261.543H270.721C270.425 261.576 270.125 261.546 269.841 261.457L269.12 261.211C268.875 261.128 268.624 261.066 268.369 261.024C268.054 260.972 267.732 260.972 267.417 261.024C267.212 260.903 266.987 260.82 266.753 260.778C266.504 260.748 266.252 260.748 266.003 260.778C265.035 260.84 264.071 260.96 263.117 261.139C262.163 261.329 261.2 261.469 260.231 261.558L259.553 261.962C259.32 262.098 259.057 262.173 258.788 262.179H258.413H258.038C257.478 262.443 256.899 262.665 256.306 262.843C255.657 263.031 255.022 263.248 254.387 263.493C253.776 263.725 253.191 264.021 252.641 264.374C252.128 264.693 251.714 265.148 251.443 265.688C251.451 265.812 251.491 265.931 251.559 266.035C251.618 266.136 251.653 266.25 251.66 266.367V266.54C251.507 266.701 251.402 266.901 251.357 267.118C251.314 267.323 251.285 267.53 251.27 267.739C251.27 267.941 251.27 268.158 251.27 268.36C251.235 268.588 251.14 268.802 250.996 268.981C251.141 269.415 251.224 269.867 251.241 270.324C251.285 270.872 251.285 271.423 251.241 271.971C251.205 272.524 251.205 273.079 251.241 273.632C251.259 274.122 251.341 274.607 251.487 275.076C251.405 275.181 251.349 275.303 251.321 275.433C251.294 275.563 251.296 275.698 251.328 275.827C251.36 275.956 251.362 276.09 251.335 276.22C251.307 276.351 251.251 276.473 251.169 276.578C251.166 276.664 251.185 276.75 251.222 276.828C251.26 276.906 251.316 276.974 251.386 277.025C251.452 277.069 251.509 277.126 251.551 277.193C251.594 277.261 251.621 277.336 251.631 277.415C251.555 277.922 251.531 278.435 251.559 278.946C251.615 279.763 251.755 280.571 251.977 281.358C252.208 282.167 252.482 282.961 252.771 283.741C253.244 283.572 253.726 283.427 254.214 283.308C254.686 283.185 255.17 283.108 255.657 283.077H256.162C256.23 283.369 256.358 283.644 256.537 283.885C256.728 284.135 256.897 284.401 257.042 284.68L256.725 285.171C256.628 285.331 256.587 285.519 256.609 285.705C256.273 285.735 255.953 285.861 255.686 286.066C255.455 286.254 255.181 286.471 254.907 286.716H254.733C254.335 286.721 253.945 286.836 253.608 287.048L252.612 287.713C252.294 287.595 251.955 287.546 251.617 287.568C251.251 287.588 250.892 287.681 250.563 287.843C250.118 287.681 249.727 287.395 249.438 287.02C249.125 286.628 248.859 286.201 248.644 285.749C248.428 285.286 248.226 284.81 248.052 284.304C247.876 283.85 247.674 283.406 247.446 282.976V282.326C247.406 281.713 247.32 281.105 247.187 280.506C247.056 279.907 246.969 279.298 246.927 278.686C246.906 278.422 246.906 278.156 246.927 277.892C246.955 277.622 247.013 277.355 247.1 277.098C247.043 276.87 247.004 276.638 246.985 276.405V275.625C246.985 274.797 246.985 273.973 246.985 273.155C246.985 272.317 246.985 271.494 246.985 270.671C246.95 270.055 246.872 269.442 246.754 268.837C246.626 268.885 246.505 268.948 246.393 269.025C246.276 269.082 246.148 269.116 246.018 269.126C245.888 269.14 245.758 269.14 245.628 269.126H245.282C244.988 268.902 244.767 268.595 244.647 268.245C244.52 267.904 244.345 267.583 244.128 267.291C244.088 266.848 244.137 266.401 244.272 265.977C244.403 265.635 244.568 265.306 244.762 264.995L245.397 264.114C245.632 263.789 245.812 263.428 245.931 263.045H246.09C246.56 263.003 247.007 262.822 247.374 262.526C247.792 262.21 248.295 262.029 248.817 262.006C249.011 261.726 249.262 261.489 249.553 261.312C249.876 261.111 250.219 260.947 250.578 260.821C250.935 260.693 251.302 260.592 251.674 260.518L252.728 260.388C252.821 260.193 252.987 260.043 253.189 259.969L253.853 259.724L254.502 259.478C254.706 259.393 254.877 259.247 254.993 259.059H255.614C255.958 259.032 256.298 258.959 256.624 258.843C256.956 258.727 257.273 258.597 257.59 258.453L258.572 258.034C258.922 257.913 259.285 257.835 259.654 257.803H260.476C260.707 257.803 260.823 257.687 260.852 257.528C260.863 257.45 260.89 257.374 260.933 257.307C260.975 257.24 261.031 257.182 261.097 257.138C261.25 257.163 261.406 257.163 261.559 257.138C262.095 257.109 262.626 257.027 263.146 256.893C263.671 256.76 264.207 256.678 264.748 256.647H265.483C265.741 256.658 265.994 256.712 266.234 256.806C266.28 256.729 266.333 256.657 266.393 256.59C266.443 256.527 266.478 256.452 266.493 256.373C267.805 256.364 269.109 256.559 270.361 256.951C271.605 257.361 272.872 257.698 274.156 257.962C274.327 258.196 274.531 258.405 274.762 258.583L275.498 259.117L276.234 259.637C276.473 259.826 276.682 260.05 276.854 260.301L276.681 260.792Z" fill="#2B2B2B"/>
<path d="M287.994 277.387C287.866 277.616 287.711 277.83 287.532 278.022C287.357 278.204 287.193 278.397 287.041 278.6C286.845 278.703 286.628 278.762 286.407 278.773H285.743C285.555 278.758 285.367 278.758 285.18 278.773C285.015 278.783 284.86 278.855 284.747 278.975C284.551 278.948 284.372 278.85 284.242 278.701C284.165 278.623 284.073 278.562 283.971 278.522C283.869 278.483 283.76 278.465 283.65 278.47C283.541 278.448 283.428 278.448 283.319 278.47C282.878 278.016 282.468 277.534 282.092 277.026L281.039 275.581C280.952 274.57 280.793 273.545 280.606 272.52C280.606 272.274 280.505 272.029 280.433 271.783C280.36 271.538 280.303 271.307 280.259 271.09C280.238 270.826 280.238 270.56 280.259 270.296C280.259 270.021 280.259 269.776 280.259 269.559C280.259 268.765 280.389 267.97 280.476 267.191C280.562 266.411 280.649 265.631 280.707 264.822C280.765 264.072 280.765 263.319 280.707 262.569C280.669 261.822 280.498 261.089 280.202 260.403V260.201C280.227 260.003 280.276 259.809 280.346 259.623C280.41 259.456 280.448 259.281 280.461 259.103C280.486 258.982 280.476 258.857 280.433 258.742C280.389 258.627 280.314 258.527 280.216 258.453C280.237 258.353 280.282 258.26 280.348 258.182C280.413 258.104 280.497 258.043 280.591 258.005C280.686 257.96 280.765 257.888 280.819 257.798C280.873 257.708 280.899 257.604 280.894 257.5C280.923 257.396 280.923 257.286 280.894 257.182L281.558 256.908C281.78 256.844 282.015 256.844 282.236 256.908C282.576 256.931 282.906 257.03 283.203 257.196C283.491 257.357 283.766 257.541 284.026 257.745C284.556 259.062 284.825 260.47 284.819 261.89C284.819 263.334 284.819 264.779 284.689 266.324C284.56 267.869 284.56 269.285 284.588 270.657C284.602 272.003 284.912 273.329 285.497 274.542H285.584C285.647 274.552 285.711 274.542 285.768 274.514C285.825 274.485 285.872 274.439 285.901 274.383C285.929 274.324 285.974 274.275 286.032 274.243C286.089 274.212 286.154 274.2 286.219 274.209C286.286 274.248 286.359 274.272 286.435 274.282C286.573 274.817 286.782 275.332 287.056 275.813C287.359 276.434 287.662 276.91 287.994 277.387Z" fill="#2B2B2B"/>
<path d="M316.622 254.987V255.146C316.535 255.175 316.46 255.235 316.413 255.314C316.365 255.394 316.347 255.488 316.362 255.579C316.069 255.733 315.759 255.854 315.439 255.94C315.115 256.035 314.801 256.161 314.501 256.315H313.577H312.654C311.832 256.315 311.009 256.445 310.187 256.561C309.368 256.668 308.544 256.716 307.719 256.705C307.345 256.96 306.937 257.159 306.507 257.298C306.093 257.446 305.661 257.539 305.223 257.572C304.936 257.619 304.644 257.619 304.357 257.572C303.688 257.959 302.982 258.278 302.25 258.525L299.927 259.319C299.167 259.559 298.421 259.838 297.69 260.157C297.004 260.441 296.377 260.853 295.843 261.37C295.843 261.76 295.843 262.136 295.843 262.511C295.843 262.887 295.843 263.248 295.843 263.594C295.868 263.953 295.911 264.309 295.973 264.663C296.036 265 296.148 265.326 296.305 265.631C296.458 265.689 296.618 265.723 296.781 265.732H297.214C297.352 265.718 297.487 265.689 297.618 265.645C297.684 265.623 297.744 265.586 297.792 265.535C297.84 265.485 297.874 265.423 297.892 265.356C298.296 265.273 298.707 265.224 299.119 265.212H300.36C300.764 265.212 301.168 265.212 301.572 265.096C301.966 265.048 302.353 264.956 302.726 264.822C303.144 264.685 303.574 264.588 304.011 264.533L305.252 264.374C305.67 264.374 306.089 264.244 306.521 264.143C306.987 264.043 307.434 263.872 307.849 263.638C308.203 263.751 308.575 263.795 308.946 263.768C309.311 263.746 309.677 263.746 310.042 263.768C310.231 263.88 310.402 264.021 310.547 264.186C310.678 264.346 310.753 264.544 310.764 264.75C310.782 265.17 310.665 265.585 310.432 265.934C310.202 266.286 310.004 266.658 309.84 267.046H309.378C308.733 267.088 308.097 267.219 307.488 267.436C306.882 267.652 306.276 267.898 305.684 268.158C305.093 268.418 304.472 268.678 303.866 268.895C303.258 269.113 302.621 269.244 301.976 269.284C301.861 269.284 301.803 269.285 301.803 269.487C301.8 269.585 301.77 269.68 301.716 269.761C301.51 269.737 301.302 269.737 301.096 269.761C300.488 269.796 299.887 269.907 299.307 270.093C298.733 270.26 298.142 270.361 297.546 270.397H297.056H296.551C296.448 270.61 296.267 270.775 296.045 270.859C295.826 270.951 295.625 271.083 295.454 271.249C295.377 271.545 295.348 271.853 295.367 272.158C295.367 272.52 295.367 272.881 295.367 273.256C295.39 273.607 295.39 273.959 295.367 274.31C295.349 274.6 295.255 274.879 295.093 275.119C295.093 275.249 295.237 275.292 295.425 275.235C295.613 275.177 295.714 275.235 295.728 275.48C295.756 275.744 295.756 276.01 295.728 276.274C295.699 276.548 295.699 276.824 295.728 277.098C295.769 277.674 295.866 278.244 296.017 278.802C296.168 279.383 296.396 279.942 296.695 280.463C296.977 280.953 297.367 281.373 297.835 281.69C298.327 282.02 298.919 282.168 299.509 282.109C299.931 282.081 300.343 281.968 300.721 281.777C301.105 281.586 301.418 281.277 301.615 280.896H301.817C301.923 280.881 302.029 280.881 302.135 280.896C302.235 280.91 302.337 280.91 302.438 280.896C302.675 280.847 302.892 280.726 303.058 280.549L303.881 279.77L304.79 278.903C305.062 278.658 305.368 278.454 305.699 278.296C305.872 277.892 306.031 277.502 306.19 277.098C306.341 276.717 306.596 276.387 306.925 276.145L306.853 274.96C307.106 274.643 307.386 274.348 307.69 274.079C307.996 273.812 308.225 273.468 308.354 273.083C308.478 273.135 308.61 273.169 308.744 273.184C308.873 273.198 309.004 273.198 309.133 273.184C309.434 273.176 309.73 273.102 309.999 272.967C310.234 273.268 310.428 273.598 310.576 273.949C310.716 274.305 310.895 274.644 311.11 274.96L310.36 276.78C310.071 277.488 309.754 278.224 309.422 278.918C309.09 279.611 308.715 280.362 308.325 280.939C308.004 281.472 307.61 281.958 307.156 282.384C307.007 282.517 306.836 282.624 306.651 282.701C306.363 282.947 306.088 283.163 305.858 283.395C305.616 283.627 305.398 283.883 305.208 284.16C304.428 284.451 303.682 284.829 302.986 285.287C302.294 285.749 301.543 286.182 300.908 286.615C300.549 286.57 300.185 286.57 299.826 286.615C299.497 286.638 299.169 286.681 298.845 286.745C298.491 286.807 298.135 286.851 297.777 286.875C297.653 286.739 297.484 286.651 297.301 286.63C297.084 286.63 296.998 286.456 297.041 286.211C296.226 286.246 295.42 286.029 294.732 285.59C294.12 285.167 293.591 284.633 293.174 284.016C292.724 283.37 292.356 282.672 292.077 281.936C291.774 281.185 291.471 280.492 291.154 279.77V279.64C291.154 279.51 291.154 279.423 291.313 279.394C291.362 279.372 291.402 279.335 291.428 279.288C291.455 279.241 291.465 279.187 291.457 279.134C291.467 279.091 291.467 279.047 291.457 279.004L291.197 278.239C291.118 277.986 291.075 277.724 291.067 277.459C291.038 277.026 291.038 276.592 291.067 276.159C291.096 275.726 291.096 275.292 291.067 274.859C291.049 274.469 290.971 274.085 290.836 273.718C290.947 273.546 291.025 273.355 291.067 273.155C291.117 272.912 291.146 272.666 291.154 272.419C291.168 272.173 291.168 271.927 291.154 271.682C291.152 271.458 291.176 271.236 291.226 271.018L290.88 270.223C290.783 269.954 290.725 269.672 290.706 269.386V269.111C290.946 268.646 291.148 268.163 291.313 267.667C291.476 267.157 291.649 266.637 291.832 266.107V265.977C291.832 265.183 291.702 264.389 291.601 263.594C291.5 262.8 291.414 262.02 291.37 261.226V260.431C291.356 260.172 291.356 259.911 291.37 259.652C291.565 259.539 291.725 259.374 291.832 259.175C291.934 258.969 292.094 258.798 292.294 258.684L293.65 258.597L293.867 258.179C293.943 258.035 293.991 257.878 294.011 257.716C294.307 257.608 294.592 257.473 294.862 257.312C295.134 257.153 295.395 256.974 295.641 256.777L296.651 256.128C296.945 255.93 297.254 255.756 297.575 255.608C297.894 255.463 298.222 255.337 298.556 255.232C298.903 255.131 299.321 255.045 299.768 254.958C299.847 254.963 299.927 254.951 300.001 254.924C300.076 254.896 300.144 254.854 300.201 254.799C300.285 254.687 300.382 254.585 300.49 254.496L301.485 254.582H302.481C303.114 254.546 303.733 254.379 304.299 254.091L306.738 253.903C307.546 253.817 308.368 253.759 309.191 253.701C310.013 253.644 310.634 253.701 311.326 253.701C312.036 253.705 312.744 253.754 313.448 253.846C313.709 253.755 313.98 253.697 314.256 253.673C314.592 253.644 314.93 253.644 315.266 253.673C315.6 253.732 315.942 253.732 316.276 253.673C316.311 253.94 316.405 254.196 316.55 254.424C316.617 254.603 316.641 254.796 316.622 254.987Z" fill="#2B2B2B"/>
<path d="M341.643 252.531C341.609 252.82 341.552 253.105 341.47 253.383C341.382 253.69 341.382 254.016 341.47 254.322C341.233 254.345 341.013 254.452 340.85 254.625C340.708 254.785 340.591 254.965 340.503 255.16C340.417 255.362 340.345 255.564 340.258 255.781C340.178 255.987 340.072 256.181 339.94 256.359C340.222 257.33 340.411 258.326 340.503 259.334C340.59 260.296 340.72 261.293 340.893 262.323C341.106 263.567 341.396 264.797 341.759 266.006C342.131 267.206 342.354 268.448 342.422 269.703C342.422 270.093 342.422 270.44 342.422 270.772C342.422 271.104 342.422 271.451 342.422 271.797C342.422 272.144 342.422 272.245 342.422 272.476C342.422 272.707 342.422 272.938 342.422 273.155C342.477 273.962 342.424 274.773 342.264 275.567C342.116 276.365 342.01 277.17 341.946 277.979C341.637 278.285 341.374 278.635 341.167 279.018C340.964 279.376 340.743 279.724 340.503 280.058C340.272 280.376 340.001 280.663 339.695 280.91C339.339 281.176 338.931 281.363 338.498 281.459C338.434 281.724 338.275 281.955 338.05 282.109C337.821 282.264 337.633 282.472 337.502 282.716H337.617C337.014 282.763 336.408 282.699 335.828 282.528C335.333 282.379 334.85 282.191 334.385 281.965L333.043 281.257C332.551 281.001 332.027 280.811 331.485 280.694C330.677 280.119 329.928 279.466 329.248 278.744C328.567 278.029 327.807 277.395 326.983 276.852C326.794 276.363 326.509 275.916 326.146 275.538C325.777 275.177 325.439 274.786 325.136 274.368C325.006 274.208 324.895 274.033 324.804 273.848L324.501 273.285C324.42 273.097 324.271 272.946 324.082 272.866C323.909 272.8 323.744 272.713 323.592 272.606C323.332 271.794 322.963 271.022 322.495 270.31C322.022 269.616 321.496 268.959 320.922 268.346C320.78 268.665 320.673 268.999 320.605 269.342C320.518 269.689 320.46 270.035 320.388 270.382C320.334 270.738 320.256 271.09 320.157 271.436C320.059 271.771 319.919 272.091 319.739 272.389V272.519C319.739 272.649 319.811 272.736 319.927 272.751C319.979 272.761 320.025 272.79 320.057 272.833C320.089 272.876 320.104 272.929 320.1 272.982C320.106 273.01 320.106 273.04 320.1 273.068C320.093 273.097 320.093 273.126 320.1 273.155C319.971 273.272 319.876 273.422 319.826 273.588C319.791 273.673 319.733 273.746 319.659 273.8C319.586 273.853 319.498 273.885 319.407 273.892C319.438 274.03 319.462 274.17 319.479 274.31V274.671C319.534 275.477 319.496 276.286 319.364 277.083C319.232 277.89 319.193 278.709 319.248 279.524V280.058C319.26 280.239 319.289 280.418 319.335 280.593C319.398 280.766 319.491 280.927 319.609 281.069C319.711 281.199 319.776 281.353 319.797 281.517C319.801 281.618 319.784 281.72 319.747 281.814C319.71 281.909 319.653 281.995 319.58 282.066L320.273 282.47C320.526 282.619 320.762 282.793 320.98 282.99C321.193 283.172 321.382 283.381 321.543 283.611C321.688 283.836 321.773 284.095 321.788 284.362C321.819 284.55 321.799 284.743 321.731 284.921C321.662 285.098 321.548 285.255 321.398 285.373C321.08 285.606 320.724 285.782 320.345 285.893C319.922 286.037 319.489 286.167 319.046 286.283C318.638 286.388 318.262 286.592 317.95 286.875H317.82C317.685 286.895 317.548 286.885 317.418 286.845C317.289 286.805 317.169 286.736 317.07 286.644C316.968 286.549 316.847 286.477 316.715 286.435C316.582 286.393 316.442 286.38 316.305 286.398C315.722 285.554 315.301 284.609 315.064 283.611C314.815 282.626 314.655 281.621 314.588 280.607C314.516 279.418 314.545 278.224 314.674 277.04C314.804 275.856 314.977 274.671 315.194 273.502C315.41 272.332 315.655 271.162 315.915 270.006C316.175 268.851 316.449 267.681 316.666 266.512V266.381C316.665 266.329 316.653 266.277 316.631 266.23C316.608 266.183 316.576 266.141 316.536 266.107C316.5 266.077 316.472 266.039 316.452 265.997C316.432 265.954 316.421 265.908 316.42 265.862V265.775C316.477 265.506 316.549 265.241 316.637 264.981C316.712 264.705 316.77 264.426 316.81 264.143C316.928 263.354 316.996 262.558 317.012 261.76C317.012 260.937 317.012 260.142 317.012 259.348C317.012 258.554 317.012 257.745 316.94 256.936C316.927 256.126 316.966 255.316 317.055 254.51C317.263 254.277 317.456 254.031 317.632 253.773C317.821 253.499 318.055 253.26 318.325 253.066C318.882 253.056 319.438 253.105 319.984 253.21C320.545 253.31 321.086 253.501 321.586 253.773C321.985 254.911 322.289 256.08 322.495 257.269C322.688 258.454 322.973 259.622 323.346 260.763V260.879C323.346 261.023 323.433 261.081 323.577 261.052C323.644 261.038 323.713 261.042 323.776 261.065C323.84 261.088 323.896 261.129 323.938 261.182C323.892 261.273 323.863 261.37 323.851 261.471V261.803V262.497L324.097 263.19C324.143 263.307 324.222 263.409 324.324 263.483C324.427 263.558 324.548 263.601 324.674 263.609C324.848 264.427 325.104 265.225 325.439 265.992C325.753 266.708 326.115 267.403 326.521 268.071C326.911 268.736 327.343 269.4 327.791 270.035C328.238 270.671 328.714 271.364 329.234 272.072C329.938 272.54 330.57 273.109 331.11 273.761C331.643 274.397 332.177 275.003 332.726 275.596C333.277 276.149 333.892 276.634 334.558 277.04C335.344 277.495 336.234 277.739 337.141 277.747C337.277 277.621 337.369 277.454 337.401 277.271L337.574 276.679C337.64 276.501 337.717 276.327 337.805 276.159C337.894 275.992 338.036 275.86 338.209 275.783C338.209 275.003 338.209 274.224 338.209 273.415C338.222 272.64 338.349 271.871 338.584 271.133C338.419 270.863 338.329 270.554 338.324 270.238C338.303 269.973 338.303 269.708 338.324 269.443C338.353 269.199 338.353 268.951 338.324 268.707C338.321 268.256 338.18 267.818 337.92 267.45C337.906 267.253 337.906 267.055 337.92 266.858C337.937 266.636 338.012 266.422 338.137 266.237C337.877 265.695 337.669 265.129 337.516 264.547C337.356 263.942 337.254 263.323 337.213 262.699C337.386 261.84 337.258 260.948 336.853 260.171L336.578 258.496C336.501 257.959 336.386 257.428 336.232 256.907C336.118 256.463 335.877 256.062 335.539 255.752C335.694 255.486 335.76 255.177 335.727 254.871C335.703 254.34 335.586 253.817 335.381 253.326C335.191 252.831 335.079 252.31 335.049 251.78C335.021 251.383 335.08 250.983 335.222 250.611C335.818 250.574 336.415 250.574 337.011 250.611C337.597 250.661 338.186 250.661 338.772 250.611C338.939 250.817 339.145 250.989 339.378 251.116L340.099 251.463C340.356 251.564 340.606 251.679 340.85 251.809C341.197 251.939 341.481 252.198 341.643 252.531Z" fill="#2B2B2B"/>
<path d="M381.166 250.64C381.075 251.006 380.919 251.354 380.704 251.665L380.055 252.575C379.856 252.865 379.686 253.175 379.55 253.499C379.422 253.846 379.397 254.222 379.478 254.582H379.074C378.708 254.572 378.352 254.701 378.078 254.943C377.818 255.19 377.515 255.386 377.183 255.521C377.121 255.36 377.044 255.205 376.953 255.059C376.91 254.987 376.854 254.925 376.787 254.875C376.72 254.825 376.644 254.79 376.563 254.77C375.923 254.956 375.273 255.1 374.615 255.203C373.951 255.319 373.302 255.449 372.652 255.593C372.348 255.67 372.049 255.766 371.758 255.882C371.469 255.998 371.152 256.099 370.834 256.2C370.666 256.272 370.484 256.307 370.3 256.301C370.109 256.28 369.915 256.28 369.723 256.301C369.074 256.301 368.367 256.46 367.602 256.575C366.881 256.679 366.191 256.94 365.582 257.341C365.294 257.325 365.005 257.325 364.716 257.341C364.414 257.319 364.11 257.319 363.807 257.341C363.083 257.392 362.365 257.499 361.657 257.659C360.935 257.808 360.248 258.097 359.637 258.511C359.494 258.455 359.343 258.421 359.19 258.409H358.67H358.555C358.518 258.424 358.476 258.424 358.439 258.409C358.424 258.659 358.474 258.907 358.584 259.132C358.697 259.366 358.892 259.551 359.132 259.652C359.038 259.975 359.004 260.313 359.031 260.648C359.055 261.134 359.118 261.617 359.218 262.092C359.319 262.568 359.381 263.051 359.406 263.537C359.447 263.955 359.403 264.378 359.276 264.779C359.612 265.612 359.807 266.495 359.853 267.393C359.875 267.715 359.875 268.038 359.853 268.36C359.853 268.678 359.853 269.01 359.853 269.371C359.855 269.508 359.891 269.643 359.956 269.764C360.021 269.885 360.115 269.988 360.229 270.064C360.342 270.145 360.434 270.251 360.5 270.374C360.565 270.497 360.6 270.633 360.604 270.772C360.63 270.881 360.63 270.995 360.604 271.104C360.975 270.995 361.337 270.855 361.686 270.685C362.028 270.512 362.401 270.409 362.783 270.382C363.003 270.368 363.223 270.398 363.432 270.469C363.635 270.542 363.829 270.639 364.009 270.758C364.001 270.912 364.001 271.066 364.009 271.22C364.009 271.393 364.009 271.552 364.009 271.711C364.009 271.87 364.009 272.303 364.009 272.563C364.009 272.823 364.081 273.097 364.125 273.401C363.931 273.78 363.699 274.138 363.432 274.469C363.148 274.811 362.968 275.227 362.912 275.668C362.528 275.674 362.152 275.789 361.83 276C361.532 276.192 361.248 276.404 360.979 276.636C360.719 276.852 360.459 277.069 360.2 277.257C359.947 277.452 359.639 277.563 359.319 277.574C359.02 277.625 358.712 277.579 358.439 277.444C358.287 277.351 358.154 277.228 358.05 277.083L357.79 276.722C357.713 276.626 357.569 276.597 357.357 276.636C357.282 276.285 357.15 275.948 356.967 275.639L356.39 274.744L355.799 273.863C355.603 273.569 355.453 273.248 355.351 272.91C355.132 272.198 355.016 271.459 355.005 270.714C354.984 269.952 354.812 269.201 354.5 268.505C354.5 268.129 354.5 267.725 354.5 267.335C354.5 266.945 354.5 266.541 354.5 266.151C354.5 265.385 354.385 264.62 354.298 263.869C354.211 263.118 354.125 262.424 354.038 261.558C353.836 261.322 353.697 261.039 353.634 260.735C353.634 260.417 353.533 260.114 353.475 259.81L353.201 259.579C353.148 259.542 353.103 259.495 353.069 259.441C353.034 259.386 353.01 259.325 352.999 259.262C352.831 259.245 352.662 259.245 352.494 259.262C352.15 259.27 351.817 259.386 351.542 259.594C351.346 259.761 351.105 259.866 350.849 259.897C350.644 259.927 350.434 259.927 350.229 259.897C350.033 259.869 349.833 259.869 349.637 259.897C349.478 259.897 349.392 259.897 349.377 260.013C349.367 260.058 349.346 260.1 349.315 260.135C349.285 260.17 349.247 260.197 349.204 260.215C349.03 260.315 348.839 260.383 348.642 260.417C348.338 260.489 348.007 260.561 347.646 260.619L346.578 260.792L345.9 260.879C345.546 260.923 345.187 260.852 344.875 260.677C344.644 260.504 344.341 260.33 344.01 260.128C344.021 260.018 344.021 259.906 344.01 259.796C344.003 259.546 343.9 259.307 343.721 259.132C343.574 259.019 343.475 258.853 343.447 258.669C343.428 258.533 343.446 258.394 343.499 258.267C343.552 258.14 343.639 258.029 343.75 257.947C343.863 257.85 343.951 257.727 344.009 257.589C344.066 257.451 344.091 257.302 344.082 257.153C344.691 256.842 345.329 256.591 345.986 256.402C346.636 256.229 347.3 256.084 347.978 255.954C348.656 255.824 349.32 255.694 349.998 255.535C350.668 255.382 351.321 255.159 351.946 254.871H352.509C352.696 254.885 352.884 254.885 353.071 254.871C353.893 254.826 354.706 254.685 355.496 254.452C356.299 254.217 357.127 254.077 357.963 254.034H358.627L359.291 254.12L362.523 253.369C363.591 253.109 364.702 252.878 365.842 252.676L367.458 252.416C367.992 252.416 368.526 252.257 369.06 252.142C369.215 252.118 369.363 252.059 369.492 251.968C369.544 251.907 369.581 251.835 369.601 251.758C369.621 251.68 369.623 251.599 369.608 251.521C369.875 251.618 370.161 251.658 370.445 251.636C370.904 251.606 371.353 251.494 371.772 251.304C372.197 251.116 372.651 251.003 373.114 250.972H373.691C373.73 250.974 373.768 250.968 373.804 250.954C373.84 250.94 373.873 250.919 373.9 250.892C373.927 250.865 373.949 250.832 373.962 250.796C373.976 250.76 373.982 250.721 373.98 250.683C373.98 250.495 374.11 250.38 374.341 250.307C374.607 250.218 374.883 250.16 375.163 250.134L376.289 249.961L377.385 249.73C377.655 249.667 377.906 249.543 378.121 249.369L378.381 248.892C378.605 248.88 378.828 248.928 379.028 249.029C379.228 249.13 379.398 249.282 379.521 249.47C379.769 249.853 379.927 250.287 379.983 250.741C380.053 250.792 380.132 250.828 380.216 250.848C380.301 250.868 380.388 250.871 380.473 250.856H381.022L381.166 250.64Z" fill="#2B2B2B"/>
<path d="M385.596 271.306C385.477 271.534 385.326 271.743 385.149 271.928C384.961 272.13 384.802 272.317 384.644 272.52C384.451 272.618 384.239 272.673 384.023 272.678H383.359H382.782C382.622 272.699 382.474 272.776 382.364 272.895C382.164 272.867 381.98 272.77 381.844 272.621C381.767 272.543 381.675 272.482 381.573 272.442C381.471 272.402 381.362 272.384 381.253 272.39C381.144 272.361 381.029 272.361 380.921 272.39C380.485 271.936 380.08 271.453 379.709 270.945L378.641 269.501C378.552 268.473 378.408 267.451 378.208 266.439C378.164 266.191 378.106 265.945 378.035 265.703C377.964 265.476 377.911 265.244 377.876 265.01C377.854 264.741 377.854 264.47 377.876 264.201C377.876 263.941 377.876 263.695 377.876 263.479C377.948 262.67 378.02 261.89 378.107 261.11C378.193 260.33 378.266 259.551 378.323 258.742C378.381 257.992 378.381 257.239 378.323 256.489C378.284 255.738 378.113 255 377.818 254.308V254.106C377.853 253.915 377.901 253.726 377.963 253.542C378.025 253.375 378.064 253.2 378.078 253.023C378.109 252.902 378.101 252.775 378.058 252.659C378.014 252.543 377.935 252.443 377.833 252.373C377.861 252.272 377.911 252.179 377.978 252.1C378.045 252.02 378.128 251.956 378.222 251.91C378.318 251.873 378.399 251.804 378.451 251.715C378.504 251.626 378.525 251.522 378.511 251.419C378.54 251.316 378.54 251.206 378.511 251.102L379.175 250.827C379.392 250.749 379.624 250.725 379.853 250.755C380.193 250.786 380.523 250.889 380.82 251.058C381.111 251.214 381.386 251.398 381.642 251.607C382.166 252.921 382.435 254.323 382.436 255.738C382.436 257.182 382.436 258.626 382.306 260.186C382.176 261.746 382.162 263.074 382.205 264.519C382.219 265.868 382.524 267.198 383.1 268.418H383.186C383.249 268.426 383.313 268.415 383.369 268.387C383.426 268.359 383.473 268.314 383.504 268.259C383.533 268.201 383.579 268.154 383.635 268.123C383.692 268.092 383.757 268.079 383.821 268.086C383.888 268.124 383.961 268.149 384.038 268.158C384.18 268.694 384.394 269.209 384.672 269.689C384.961 270.257 385.269 270.796 385.596 271.306Z" fill="#2B2B2B"/>
<path d="M420.241 271.725C420.199 272.087 420.042 272.426 419.794 272.693C419.534 272.947 419.231 273.152 418.899 273.299C418.56 273.458 418.201 273.57 417.832 273.632C417.498 273.699 417.161 273.742 416.822 273.762H416.042C415.898 273.762 415.84 273.762 415.855 273.978C415.856 274.041 415.838 274.103 415.805 274.157C415.772 274.211 415.724 274.254 415.667 274.282C415.533 274.229 415.392 274.195 415.249 274.18C415.11 274.166 414.969 274.166 414.83 274.18C414.648 274.165 414.464 274.165 414.282 274.18C414.109 274.194 413.935 274.194 413.762 274.18C413.607 274.224 413.442 274.224 413.286 274.18C413.193 274.14 413.106 274.086 413.027 274.022L412.81 273.805C412.723 273.715 412.614 273.65 412.493 273.617C412.417 273.585 412.336 273.569 412.255 273.569C412.173 273.569 412.092 273.585 412.016 273.617C411.901 273.617 411.699 273.617 411.439 273.401C411.081 273.145 410.777 272.821 410.545 272.447C410.285 272.072 410.025 271.667 409.78 271.234C409.535 270.801 409.275 270.397 409.001 269.963C408.735 269.56 408.42 269.191 408.063 268.866H407.731C407.517 268.862 407.307 268.926 407.131 269.047C406.955 269.169 406.822 269.343 406.75 269.545C406.596 269.464 406.451 269.367 406.317 269.256C406.172 269.142 406.012 269.05 405.841 268.981C405.22 269.212 404.585 269.414 403.907 269.602C403.236 269.777 402.55 269.889 401.858 269.935H401.281C401.104 269.961 400.924 269.961 400.747 269.935C400.493 270.055 400.251 270.2 400.025 270.368C399.847 270.517 399.629 270.61 399.398 270.636C399.167 270.661 398.933 270.618 398.727 270.512C398.554 270.512 398.481 270.599 398.51 270.743C398.539 270.888 398.438 270.945 398.251 270.96H397.89C397.5 270.96 397.125 270.96 396.764 271.061C396.404 271.162 396.014 271.148 395.624 271.177C395.084 271.206 394.541 271.172 394.008 271.075C393.882 271.166 393.731 271.216 393.575 271.22C393.465 271.283 393.382 271.387 393.345 271.509L393.2 271.841C393.144 271.94 393.071 272.028 392.984 272.101C392.931 272.147 392.868 272.178 392.8 272.194C392.732 272.209 392.661 272.207 392.594 272.187C392.575 272.492 392.447 272.779 392.233 272.996C392.126 273.117 392.046 273.26 391.999 273.414C391.952 273.569 391.938 273.731 391.959 273.892C391.681 274.063 391.44 274.289 391.252 274.556C391.079 274.801 390.906 275.076 390.733 275.365C390.56 275.654 390.372 275.928 390.184 276.188C389.993 276.446 389.747 276.659 389.463 276.809C389.405 276.933 389.375 277.069 389.375 277.206C389.375 277.343 389.405 277.479 389.463 277.603C389.139 277.888 388.78 278.131 388.395 278.325C388.017 278.532 387.598 278.655 387.169 278.686C386.792 278.719 386.415 278.62 386.102 278.407C385.789 278.194 385.56 277.88 385.451 277.517C385.451 277.242 385.451 276.953 385.451 276.636C385.451 276.318 385.451 276.015 385.581 275.711C385.647 275.425 385.759 275.152 385.913 274.903C386.074 274.656 386.305 274.465 386.577 274.354C386.579 274.251 386.554 274.15 386.503 274.061C386.452 273.972 386.378 273.898 386.288 273.848C386.203 273.801 386.135 273.728 386.093 273.64C386.052 273.552 386.039 273.453 386.058 273.357C386.762 272.965 387.388 272.446 387.905 271.826C388.431 271.222 388.913 270.58 389.347 269.906C389.751 269.241 390.17 268.548 390.603 267.869C391.011 267.195 391.495 266.57 392.046 266.006V265.14C392.79 264.266 393.288 263.209 393.489 262.078C393.613 262.058 393.73 262.006 393.829 261.927C393.927 261.849 394.004 261.747 394.052 261.63C394.139 261.375 394.174 261.105 394.153 260.836C394.211 260.837 394.267 260.817 394.312 260.78C394.357 260.743 394.388 260.691 394.398 260.634C394.398 260.499 394.513 260.456 394.744 260.504C394.946 259.87 395.182 259.248 395.451 258.641C395.725 258.077 395.985 257.5 396.259 256.922C396.52 256.337 396.751 255.739 396.952 255.131C397.149 254.462 397.28 253.775 397.342 253.08C397.717 253.08 397.919 252.835 397.933 252.488C397.948 252.142 397.933 251.824 398.02 251.549C398.412 251.141 398.703 250.646 398.871 250.105C399.044 249.571 399.189 249.022 399.318 248.444C399.448 247.867 399.593 247.303 399.766 246.726C399.93 246.161 400.199 245.632 400.559 245.166V245.036C400.562 244.982 400.546 244.928 400.515 244.884C400.483 244.839 400.438 244.806 400.386 244.791C400.333 244.771 400.286 244.735 400.253 244.689C400.22 244.643 400.201 244.588 400.199 244.53C400.208 244.502 400.208 244.472 400.199 244.444C400.508 244.294 400.754 244.037 400.891 243.722C401.029 243.406 401.274 243.15 401.584 243C402.046 243.361 402.583 243.613 403.157 243.736C403.735 243.819 404.318 243.862 404.903 243.866C405.277 244.216 405.517 244.686 405.581 245.195C405.657 245.73 405.782 246.257 405.956 246.769C406.23 247.636 406.519 248.473 406.836 249.296C407.145 250.12 407.396 250.965 407.587 251.824C407.704 252.328 407.888 252.813 408.135 253.268C408.384 253.72 408.564 254.207 408.669 254.712C408.758 255.139 408.787 255.577 408.755 256.012C408.717 256.441 408.802 256.872 409.001 257.254L409.333 257.904C409.487 258.203 409.622 258.512 409.737 258.828C409.852 259.146 409.968 259.464 410.069 259.796C410.343 260.605 410.588 261.471 410.833 262.41C411.041 263.292 411.377 264.138 411.829 264.923C411.9 265.053 411.997 265.168 412.113 265.26C412.23 265.352 412.364 265.419 412.507 265.457C412.824 265.563 413.155 265.621 413.488 265.631C413.839 265.66 414.191 265.66 414.542 265.631L415.422 265.558H415.826C415.993 265.529 416.164 265.529 416.331 265.558C416.437 265.73 416.506 265.922 416.533 266.122C416.549 266.267 416.531 266.415 416.481 266.553C416.431 266.69 416.35 266.815 416.244 266.916C416.151 267.002 416.077 267.107 416.027 267.224C415.977 267.341 415.953 267.468 415.956 267.595C415.976 267.761 416.046 267.917 416.158 268.043C415.99 268.026 415.821 268.026 415.653 268.043C415.025 268.083 414.41 268.235 413.835 268.49C414.067 268.926 414.392 269.305 414.787 269.602C415.179 269.901 415.588 270.176 416.014 270.426C416.235 270.196 416.533 270.057 416.85 270.036C417.173 270.011 417.496 270.071 417.788 270.209C418.083 270.339 418.405 270.394 418.726 270.368C418.915 270.373 419.1 270.323 419.26 270.223C419.485 270.436 419.679 270.679 419.837 270.945C419.936 271.223 420.072 271.485 420.241 271.725ZM406.966 265.948C406.923 265.597 406.81 265.258 406.634 264.952C406.488 264.717 406.372 264.465 406.288 264.201C406.14 263.81 406.038 263.403 405.985 262.988C405.917 262.564 405.826 262.145 405.711 261.731C405.465 260.807 405.191 259.883 404.903 258.973C404.614 258.063 404.262 257.175 403.849 256.315C403.94 256.179 403.985 256.017 403.979 255.853V255.723C403.709 255.449 403.502 255.119 403.373 254.756C403.243 254.351 403.113 253.961 402.998 253.571C402.884 253.197 402.734 252.834 402.551 252.488C402.387 252.148 402.119 251.87 401.786 251.694C401.711 251.877 401.681 252.075 401.699 252.272C401.709 252.453 401.743 252.633 401.8 252.806C401.847 252.981 401.876 253.16 401.887 253.34C401.628 253.486 401.433 253.723 401.338 254.005C401.228 254.297 401.032 254.549 400.776 254.727C400.624 255.603 400.362 256.457 399.997 257.269C399.621 258.077 399.246 258.886 398.842 259.68C398.438 260.475 398.049 261.284 397.688 262.092C397.326 262.893 397.05 263.731 396.865 264.591C396.539 264.839 396.305 265.19 396.202 265.587C396.1 265.964 396.061 266.354 396.086 266.743C396.35 266.873 396.643 266.933 396.937 266.916H397.875C398.163 266.88 398.454 266.88 398.741 266.916C399.026 266.957 399.293 267.083 399.506 267.277C399.881 267.14 400.267 267.039 400.66 266.974C401.034 266.933 401.389 266.788 401.685 266.555C402.266 266.721 402.871 266.784 403.474 266.743C403.795 266.718 404.113 266.67 404.426 266.598C404.744 266.598 405.047 266.44 405.35 266.338C405.565 266.359 405.77 266.438 405.942 266.569C406.032 266.629 406.134 266.669 406.241 266.687C406.348 266.704 406.457 266.699 406.562 266.671C406.674 266.576 406.754 266.45 406.793 266.31C406.814 266.179 406.875 266.058 406.966 265.963V265.948Z" fill="#2B2B2B"/>
<path d="M122.717 315.89C121.626 315.933 120.536 315.807 119.484 315.514C118.552 315.217 117.575 315.09 116.598 315.138C115.636 315.138 114.727 315.167 113.871 315.225L114.593 315.052C115.555 314.821 115.814 314.662 115.372 314.575C114.939 314.489 114.809 314.373 115.011 314.229C119.821 313.564 124.15 312.828 127.998 312.019C129.746 311.982 131.491 311.837 133.221 311.586C134.895 311.355 136.569 311.181 138.243 311.095C143.139 310.286 148.228 309.535 153.509 308.842C158.791 308.148 164.12 307.474 169.497 306.82L185.587 304.841C190.954 304.177 196.149 303.397 201.214 302.733L208.847 302.112C211.272 301.92 213.682 301.573 216.062 301.072C220.016 300.802 223.945 300.47 227.851 300.075L239.64 298.862C243.608 298.443 247.533 298.039 251.443 297.663C255.354 297.288 259.293 296.985 263.276 296.739L263.983 296.566C264.344 296.479 264.762 296.407 265.253 296.32L266.696 296.118C273.064 295.608 279.341 295.073 285.526 294.515L304.097 292.811C305.67 292.811 307.228 292.724 308.758 292.609C310.288 292.493 311.774 292.435 313.188 292.363C315.179 292.103 317.214 291.901 319.349 291.771C321.485 291.641 323.534 291.511 325.583 291.41C327.632 291.309 329.724 291.164 331.817 290.991C333.909 290.818 335.943 290.572 337.906 290.255C341.484 290.255 346.03 290.11 351.556 289.662C357.083 289.215 362.104 288.752 366.621 288.218C370.825 288.16 375.356 287.987 380.214 287.698C385.091 287.409 389.78 287.178 394.311 287.005C395.28 287.008 396.246 286.916 397.197 286.731C398.017 286.53 398.852 286.4 399.694 286.341C403.984 286.225 408.159 286.143 412.219 286.095C416.278 286.047 420.169 286.047 423.892 286.095H426.273C427.211 286.095 428.019 286.095 428.683 286.196C429.043 286.384 429.058 286.572 428.683 286.759C428.163 287.004 427.615 287.183 427.052 287.294L424.455 287.886C423.503 288.088 422.608 288.319 421.785 288.536C421.047 288.682 420.3 288.784 419.549 288.839L417.168 289.012L414.787 289.215C414.044 289.289 413.307 289.41 412.579 289.576L411.973 289.749L411.353 289.922C410.169 289.922 408.9 289.922 407.543 290.023C406.187 290.124 404.989 290.023 403.922 290.023C403.388 290.023 402.709 290.023 401.887 289.879C398.433 290.139 395.095 290.327 391.873 290.442L382.162 290.818C378.944 290.962 375.654 291.135 372.335 291.338C369.016 291.54 365.524 291.843 361.888 292.248C356.578 292.43 351.138 292.71 345.568 293.085C339.998 293.461 334.39 293.855 328.743 294.27L311.832 295.526C306.233 295.945 300.649 296.277 295.122 296.551C292.755 296.84 290.331 297.172 287.907 297.548C286.867 297.518 285.827 297.547 284.79 297.634L281.76 297.923C280.75 298.025 279.726 298.097 278.715 298.169C277.705 298.241 276.652 298.27 275.584 298.169C271.861 298.679 268.134 299.103 264.401 299.44C260.678 299.786 256.956 300.09 253.262 300.35C249.683 300.884 246.047 301.346 242.353 301.794C238.659 302.242 234.921 302.588 231.126 302.964C227.331 303.339 223.536 303.729 219.713 304.148C215.889 304.567 212.166 305 208.587 305.506C206.12 305.578 203.681 305.737 201.3 306.011C198.919 306.285 196.524 306.574 194.086 306.892L186.871 307.816C184.432 308.105 181.936 308.336 179.382 308.495C177.665 308.798 175.789 309.073 173.74 309.333C171.691 309.593 169.656 309.853 167.665 310.098L161.691 310.864C159.7 311.138 157.853 311.427 156.164 311.759C153.202 311.942 150.354 312.192 147.622 312.51L139.296 313.55L131.014 314.662C128.387 315.283 125.617 315.615 122.717 315.89Z" fill="#5287DD"/>
<path d="M501.358 22.27L503.075 26.0828H505.095L532.512 84.7038H496.207L496.048 80.9633H494.605V84.7038L457.088 84.4872L458.877 80.8188L453.351 80.7467L482.34 22.5589L501.358 22.27ZM489.814 60.3253L492.7 60.181L493.234 80.1545H527.519L500.853 23.021L482.773 23.2377L454.534 79.9234L490.089 80.1545L489.814 60.3253Z" fill="#2B2B2B"/>
<path d="M121.714 101.688H134.124L133.676 101.24L127.702 95.1744L141.959 78.6523L145.552 82.5374L145.696 82.393L154.513 91.8959L141.742 101.688H151.237V105.428H154.96L154.888 164.208H125.524V160.468H121.786L121.714 101.688ZM122.537 159.789H150.415L150.487 102.511L122.464 102.424L122.537 159.789ZM128.741 95.2465L133.748 100.345L149.621 88.141L142.002 79.8512L128.741 95.2465Z" fill="#2B2B2B"/>
<path d="M149.462 179.604C154.736 179.532 159.929 180.9 164.484 183.561C167.425 185.394 170.072 187.663 172.333 190.291C175.006 192.555 177.3 195.231 179.13 198.22C181.721 202.793 183.083 207.96 183.083 213.218C183.083 218.475 181.721 223.643 179.13 228.216C176.504 232.743 172.744 236.506 168.221 239.134C163.656 241.732 158.494 243.098 153.243 243.098C147.991 243.098 142.83 241.732 138.265 239.134C135.271 237.374 132.593 235.124 130.343 232.477C124.961 227.929 121.342 221.637 120.113 214.695C118.885 207.754 120.125 200.601 123.619 194.479C126.326 190.015 130.068 186.27 134.528 183.561C139.054 180.908 144.217 179.54 149.462 179.604ZM124.283 194.855C121.683 199.271 120.34 204.316 120.401 209.441C120.349 214.589 121.69 219.654 124.283 224.1C126.851 228.494 130.509 232.15 134.903 234.715C139.349 237.261 144.383 238.6 149.506 238.6C154.628 238.6 159.662 237.261 164.108 234.715C168.502 232.15 172.16 228.494 174.729 224.1C177.321 219.654 178.662 214.589 178.61 209.441C178.671 204.316 177.329 199.271 174.729 194.855C172.18 190.445 168.517 186.784 164.108 184.24C159.662 181.694 154.628 180.354 149.506 180.354C144.383 180.354 139.349 181.694 134.903 184.24C130.483 186.78 126.81 190.442 124.254 194.855H124.283Z" fill="#2B2B2B"/>
</svg>
