<svg width="73" height="41" viewBox="0 0 1722 986" fill="none" xmlns="http://www.w3.org/2000/svg">
<path d="M442.667 8.66667V16H862.667H1282.67V8.66667V1.33333H862.667H442.667V8.66667Z" fill="#005983"/>
<path d="M512 96.8C494.934 101.333 482.667 110.267 472.4 125.733C454.267 152.8 451.467 195.733 466 227.333C476.534 250.4 495.467 264.267 522 268.133C533.6 269.867 548.667 267.467 558.8 262.133L564.934 258.933L575.2 263.467C587.067 268.667 590 269.067 592 265.2C593.2 263.067 593.067 261.733 591.467 259.333C589.734 256.667 589.334 251.2 589.334 227.733C589.334 194.933 589.6 194 599.467 192.533C602.667 192.133 606.667 190.667 608.267 189.467C610.534 187.467 610.8 186.667 609.467 184.267C607.867 181.333 607.467 181.333 583.734 181.6C562.667 182 559.467 182.267 558.134 184.267C557.067 186.133 557.467 187.333 560.4 190.4C564 194.133 564 194.4 564 211.733C564 232.4 562.934 236 554.534 243.067C539.734 255.867 517.734 254.267 504.267 239.467C492.934 227.2 488 209.867 488 182.667C488 154.933 493.2 134.4 503.2 123.067C510.8 114.533 516.8 112 530.667 112C542.8 112 550.934 114.667 557.067 120.4C561.067 124.133 566.4 134.533 569.2 143.867C571.734 152 574.667 154.8 577.867 152.133C579.734 150.667 580 146.533 580 126C580 108.133 579.6 101.333 578.4 100.267C576.4 98.6667 538.934 94.6667 527.334 94.8C522.934 94.8 516 95.7334 512 96.8Z" fill="#005983"/>
<path d="M1177.33 97.3333C1164.93 100.667 1154.93 106.667 1146.8 115.467C1138.8 124.133 1134.4 132.667 1129.87 147.333C1126.53 158.267 1126.27 161.333 1126.13 181.333C1126 207.333 1128.13 218.533 1136.13 234.667C1147.47 257.2 1167.87 268.667 1196.67 268.533C1224.8 268.4 1245.07 256.133 1257.07 232.133C1265.2 216 1267.33 204.667 1267.2 179.333C1267.07 162.133 1266.53 156 1264.27 147.733C1254.93 113.6 1234.53 96.6667 1200.67 95.2C1190.13 94.8 1185.2 95.2 1177.33 97.3333ZM1214 115.867C1230.67 125.2 1237.47 145.333 1237.6 184.667C1237.6 231.867 1225.47 252 1197.07 252C1177.6 251.867 1165.33 241.067 1159.2 218.267C1156 206.267 1154.4 179.867 1156 163.2C1158.27 138.933 1163.87 124.933 1174.8 117.2C1185.2 109.733 1202 109.2 1214 115.867Z" fill="#005983"/>
<path d="M624.4 98.2667C621.867 99.2 622.267 105.067 625.067 106.4C626.267 107.2 630.534 108.133 634.534 108.667C647.6 110.4 646.667 104.933 646.667 182.133C646.667 223.467 646.134 250.4 645.334 252C644.667 253.333 642.267 255.067 640.134 255.733C635.6 257.333 632.934 261.333 634.667 264.133C635.6 265.6 640.934 266.133 661.867 266.4C688.934 266.8 693.334 266.133 693.334 261.467C693.334 258.133 691.2 256.533 684.267 254.8C674.8 252.267 674.534 251.067 674.934 218.533L675.334 190L687.334 189.6C694 189.333 700.534 189.467 702.134 189.867C704.267 190.4 709.734 200 723.867 227.333C735.6 250 744 264.533 745.734 265.467C749.6 267.6 782.267 266.267 787.467 263.867C790.4 262.4 791.334 261.067 791.334 258V254L783.734 254.4C771.734 255.067 770.267 253.733 752.667 226.4C744 212.933 734.4 198.4 731.2 193.867L725.6 185.867L734 182.133C744.134 177.733 753.334 169.2 758.134 159.733C762.934 150.267 764 135.467 760.667 125.2C756.4 112.533 743.334 102.267 726.934 98.8C719.867 97.3333 627.867 96.8 624.4 98.2667ZM718 115.867C728 120.533 733.334 129.467 733.334 141.6C733.334 155.6 728.667 164.133 718.134 169.733C713.2 172.267 710.667 172.667 694 172.667H675.334L674.934 144.8C674.667 125.467 675.067 116.4 676.134 115.2C678.667 112.133 711.067 112.667 718 115.867Z" fill="#005983"/>
<path d="M788.4 98.2667C785.867 99.2001 786.267 105.067 789.067 106.4C790.267 107.2 794 108.133 797.2 108.667C808 110.4 807.467 107.467 808.4 168.133C809.467 228.133 810 232.8 818 244.933C824.134 254.267 833.067 260.667 845.334 264.533C870.667 272.533 898.934 269.067 913.867 255.867C921.067 249.467 927.467 237.2 929.334 226C930.134 221.6 931.2 195.2 931.734 167.333C932.534 131.867 933.334 115.733 934.4 113.733C935.467 111.733 938.667 110 943.334 108.533C951.6 106.133 954.534 102.8 951.2 99.4667C949.467 97.7334 945.2 97.3334 925.2 97.3334C893.867 97.3334 891.067 98.6667 901.867 108.667L907.6 114L908.534 165.6C909.067 194 909.067 219.467 908.534 222.267C905.734 237.6 894.267 247.733 878 249.067C861.867 250.267 847.734 243.2 840.534 230.4L836.667 223.333L836.267 170.8C836 133.067 836.267 117.067 837.467 114.4C838.934 110.8 840.134 110.133 852.267 107.467C857.2 106.4 859.334 102.267 856.534 99.4667C854.8 97.6001 849.867 97.3334 822.267 97.4667C804.534 97.4667 789.2 97.8667 788.4 98.2667Z" fill="#005983"/>
<path d="M968.8 99.4666C967.2 100.933 967.067 102.133 968 104C969.467 106.8 971.2 107.467 980.134 108.667C987.2 109.733 988.4 110.267 990.534 114.267C992.667 118.4 992.667 246.533 990.534 251.2C989.6 253.2 987.067 255.2 984.534 256C979.867 257.6 977.467 262 979.867 264.533C982 266.533 1034.8 267.333 1038.67 265.333C1042 263.6 1042.13 259.2 1038.8 257.467C1037.47 256.667 1033.87 255.733 1030.93 255.2C1028 254.8 1024.27 253.067 1022.67 251.333C1020.13 248.533 1020 247.2 1020.27 222.533L1020.67 196.667L1041.33 195.867C1062.93 194.933 1070.93 193.2 1083.07 187.067C1101.47 177.867 1111.6 157.333 1108 137.067C1105.07 121.067 1097.33 110.933 1083.2 104.4C1069.73 98.2666 1061.33 97.3333 1014.4 97.3333C976.534 97.3333 970.534 97.5999 968.8 99.4666ZM1060.4 116C1067.2 118 1075.47 125.6 1077.47 131.733C1079.87 138.667 1079.47 154.267 1076.8 160.667C1074 167.333 1068.8 172.8 1062.27 176.133C1056.4 179.2 1039.73 181.6 1028.67 181.067L1020.67 180.667L1020.27 148.667C1020.13 131.067 1020.27 115.867 1020.67 114.8C1021.2 113.333 1024.53 113.067 1038.4 113.733C1047.73 114.133 1057.6 115.2 1060.4 116Z" fill="#005983"/>
<path d="M1.3335 310.667V344H222H442.667V310.667V277.333H222H1.3335V310.667Z" fill="#005983"/>
<path d="M1283.2 279.067C1282.93 280 1282.8 294.8 1282.93 312L1283.33 343.333L1501.73 343.733L1720 344V310.667V277.333H1502C1326.8 277.333 1283.73 277.733 1283.2 279.067Z" fill="#005983"/>
<path d="M1.3335 370V377.333H860.667H1720V370V362.667H860.667H1.3335V370Z" fill="#005983"/>
<path d="M99.3335 405.867C81.4668 410 67.2001 417.867 54.5335 430.533C28.4001 456.667 14.1335 501.867 16.4001 550.533C20.4001 634.533 64.2668 681.6 132.933 675.867C152.667 674.133 185.333 668.533 187.333 666.533C188.667 665.2 189.6 656.133 190.533 635.067C192.4 597.067 192.4 595.067 190.267 594.267C186.8 592.933 185.333 595.467 182 608.4C175.867 632.4 165.6 647.2 151.2 653.333C147.867 654.8 139.867 656.667 133.2 657.467C110.933 660.4 95.0668 655.467 81.3335 641.467C69.0668 628.933 61.3335 611.067 56.5335 584.533C53.6001 568.4 53.3335 524.933 55.8668 504.667C61.0668 463.733 74.5335 437.467 95.3335 427.333C109.333 420.4 136 421.733 150 430C162.933 437.467 172.933 453.733 178.8 476.133C182 488.933 183.467 491.467 186.133 489.2C188.8 487.067 188.8 414.4 186.267 412.267C184 410.267 143.733 405.467 123.333 404.667C112.267 404.267 104.8 404.533 99.3335 405.867Z" fill="#005983"/>
<path d="M280 483.333C252.134 489.6 232.8 509.733 224.134 541.333C218.134 563.067 217.867 594 223.467 617.2C228.8 639.467 242.8 659.333 258.534 667.2C281.6 678.933 315.6 678.667 336.534 666.8C364.934 650.4 380.667 609.067 376.134 562.4C371.067 509.867 347.2 483.733 302.667 481.867C293.2 481.6 285.867 482 280 483.333ZM317.2 500.667C338.667 512.4 348.134 541.467 346.267 590.667C344.8 628.533 336.667 648.133 318.4 657.2C311.467 660.8 308.8 661.333 300 661.333C286.934 661.333 279.067 658.667 270.667 651.067C255.334 637.333 248.134 608.533 249.734 567.333C250.934 536 256.934 517.333 269.734 505.867C278.134 498.267 285.6 495.867 299.334 496.4C308.134 496.8 311.334 497.467 317.2 500.667Z" fill="#005983"/>
<path d="M863.2 483.467C861.334 485.067 848.933 516.4 827.867 571.867C792.533 665.2 795.467 659.333 782.133 664.667C778.133 666.267 775.333 668.133 775.333 669.333C775.333 671.067 779.2 671.333 799.733 671.733C816.133 672 824 671.6 824 670.667C824 669.867 822.8 667.6 821.2 665.467L818.4 661.733L824.667 641.867C828.133 630.933 831.6 621.2 832.267 620.267C834.267 617.867 900.4 618 902.4 620.4C904.8 623.2 914.667 651.067 914.667 654.8C914.667 659.333 912.534 661.067 903.067 663.867C896.934 665.6 895.2 666.8 894.934 669.067L894.534 672H931.867C956.4 672 969.467 671.467 970 670.667C971.6 668.133 967.867 665.467 960.8 664C956.534 663.2 952.534 661.333 950.8 659.467C949.067 657.733 932.934 618.667 913.734 570.533C895.067 523.333 879.2 484.133 878.667 483.467C878 482.933 874.934 482.133 871.734 481.733C867.334 481.2 865.334 481.6 863.2 483.467ZM868 521.867C868 522 874.667 540.133 882.667 561.867C890.8 583.6 897.334 602 897.334 602.8C897.334 603.467 885.467 604 868 604C845.2 604 838.667 603.6 838.667 602.267C838.667 601.067 861.334 531.6 864.667 522.933C865.2 521.6 868 520.533 868 521.867Z" fill="#005983"/>
<path d="M1614 482.533C1612 483.467 1603.87 503.2 1578.8 569.467C1560.93 616.667 1545.2 656.667 1543.73 658.267C1542.27 659.867 1537.6 662.4 1533.2 664C1527.47 666.267 1525.33 667.6 1525.33 669.467C1525.33 671.867 1526.8 672 1549.2 672C1562.4 672 1573.47 671.467 1573.87 670.8C1574.27 670.133 1573.47 668.133 1572 666.267C1570.53 664.4 1569.33 661.733 1569.33 660.4C1569.33 659.067 1572.27 649.2 1575.73 638.667L1582.27 619.333H1617.47H1652.67L1659.07 636.667C1666.8 657.333 1666.67 659.733 1657.33 662.4C1648.8 664.8 1644.67 667.2 1644.67 669.333C1644.67 671.067 1650.13 671.333 1682 671.333C1716 671.333 1719.33 671.067 1719.73 669.067C1720.13 667.333 1718 666.267 1710.8 664C1704.27 662.133 1700.67 660.267 1699.2 658.133C1698.13 656.4 1682 616.667 1663.47 569.867C1627.73 479.867 1628.4 481.333 1620 481.467C1618.13 481.467 1615.47 482 1614 482.533ZM1632.13 560.8C1640.13 582 1646.53 600.4 1646.67 601.6C1646.67 603.867 1644.4 604 1617.2 604C1594.13 604 1587.87 603.6 1588.27 602.267C1588.67 601.467 1594.93 582.8 1602.13 560.933C1609.33 539.2 1615.87 521.467 1616.53 521.733C1617.33 522 1624.27 539.6 1632.13 560.8Z" fill="#005983"/>
<path d="M388.133 487.2C385.733 490 390.933 492.8 400.267 494C409.733 495.067 414.133 499.067 415.467 507.467C415.867 510.667 415.333 544.933 414.133 583.6C411.733 665.067 413.067 658.8 397.6 663.733C390.133 666.133 388 667.467 388 669.467C388 671.867 389.333 672 416 672C438.933 672 444 671.6 444 670.133C444 669.2 443.067 667.6 441.867 666.533C436.267 662 435.867 658.667 434.667 612.933C432.933 549.867 432.933 538.267 435.067 538.933C435.867 539.333 450.267 568 466.8 602.8C494.133 660.133 497.2 666 500.133 666C503.067 666 506.533 659.6 535.6 602C555.2 562.933 568.533 537.867 569.867 537.6C571.733 537.2 572 542.933 572 595.733V654.4L568.667 658.4C565.867 661.733 563.6 662.667 556.267 664C545.733 665.733 543.333 666.933 544.4 669.867C545.2 671.733 549.867 672 586.667 672C626.667 672 628 671.867 628 669.467C628 666 627.333 665.733 616.533 664C609.867 662.933 606.4 661.6 604 659.2L600.667 656L600.267 582.267C600 541.867 600.267 506.133 600.667 502.933C601.2 499.333 602.933 495.6 605.467 492.667C607.733 490.133 609.2 487.467 608.667 486.667C607.467 484.667 574 484.933 572.4 486.933C571.733 487.867 557.2 517.2 540.133 552C522.933 586.8 508.133 616.267 507.2 617.333C505.6 618.933 505.067 618.933 503.6 617.333C502.533 616.267 489.067 587.467 473.467 553.333C457.867 519.2 444.267 490 443.2 488.267C441.333 485.333 440.8 485.333 415.467 485.333C394.667 485.333 389.333 485.733 388.133 487.2Z" fill="#005983"/>
<path d="M637.733 487.467C636.533 490.533 638.667 491.867 647.333 493.467C659.2 495.467 660 495.867 662.8 500.4C665.2 504.533 665.333 508 665.333 580C665.333 651.867 665.2 655.467 662.8 659.467C661.2 662.133 658.267 664.4 655.467 665.333C652.133 666.4 650.667 667.733 650.667 669.467C650.667 671.867 652 672 683.867 672C705.6 672 717.467 671.467 718 670.667C719.6 668 715.867 665.467 708.267 663.867C703.333 662.933 699.6 661.2 697.067 658.667L693.333 654.933V625.733C693.333 604.8 693.733 596.133 694.933 594.933C696 593.867 701.867 593.333 712.4 593.333C746.8 593.333 768.133 586.267 782.533 569.867C790.4 560.933 793.733 551.2 793.733 537.333C793.6 510.4 778.533 493.467 749.067 487.467C733.867 484.267 638.933 484.267 637.733 487.467ZM737.333 501.467C747.467 503.6 756 510 760.4 518.533C763.467 524.667 764 527.467 764 536.667C764 550.933 761.333 558.667 753.467 566.667C744.4 575.867 735.733 578.8 714.4 579.733C701.867 580.133 696.8 579.867 695.333 578.667C693.6 577.2 693.333 571.467 693.333 540.133C693.333 513.2 693.733 502.8 694.933 501.6C696.933 499.6 727.867 499.467 737.333 501.467Z" fill="#005983"/>
<path d="M992.133 486.533C989.2 488.4 992.533 491.733 999.2 493.333C1008.13 495.6 1010.4 496.933 1012.8 501.6C1014.8 505.6 1014.93 510.533 1014.13 556C1013.73 583.467 1012.93 617.067 1012.4 630.533C1011.47 659.6 1011.2 660.133 997.333 663.867C990.4 665.733 988.533 666.8 988.267 669.067C987.867 672 987.867 672 1015.2 672C1032.53 672 1042.8 671.467 1043.33 670.667C1043.87 669.867 1042.4 667.2 1040.27 664.667C1035.2 659.067 1034.93 656.8 1034 610.667C1033.6 591.2 1032.93 565.867 1032.53 554.267C1031.87 539.867 1032.13 533.333 1033.07 533.333C1033.87 533.333 1058.8 565.333 1088.67 604.533C1118.4 643.733 1143.6 676.133 1144.67 676.533C1145.6 676.8 1147.6 676.8 1149.07 676.4C1151.73 675.733 1151.87 674.667 1152.27 590.133C1152.67 512.8 1152.93 504.267 1154.93 501.2C1157.2 497.733 1159.87 496.267 1170.67 493.067C1175.2 491.733 1176.67 490.667 1176.67 488.667C1176.67 486.133 1175.6 486 1142.8 485.6C1118.8 485.333 1108.4 485.733 1107.2 486.8C1104.13 489.333 1107.47 491.733 1116.4 493.467C1122.13 494.667 1125.73 496.267 1128.13 498.667C1131.6 502.133 1131.73 502.533 1132.53 526.8C1133.87 562.8 1133.07 614 1131.07 614C1130.27 614 1108.13 585.733 1082 551.333C1055.87 516.8 1033.47 487.867 1032.27 486.933C1029.73 485.067 995.067 484.667 992.133 486.533Z" fill="#005983"/>
<path d="M1200.4 487.467C1199.2 490.533 1201.33 491.867 1210 493.333C1214.4 494.133 1219.33 495.333 1221.07 496C1227.87 498.933 1228 500.933 1228 579.6C1228 649.733 1227.87 652.8 1225.33 656.933C1222.8 661.333 1219.73 662.533 1206.67 664.933C1201.87 665.733 1200.53 666.667 1200.27 669.067L1199.87 672H1241.2C1268.4 672 1282.8 671.467 1283.33 670.667C1285.07 667.867 1281.07 665.467 1272.13 664C1262.53 662.4 1257.87 659.467 1256.67 654.267C1256.27 652.667 1256.13 636 1256.27 617.333L1256.67 583.333H1298H1339.33L1339.73 618.933L1340 654.4L1336.67 658.4C1333.87 661.733 1331.73 662.667 1324.27 664C1313.73 665.733 1311.33 666.933 1312.4 669.867C1313.2 671.733 1317.87 672 1354.67 672H1396.13L1395.73 669.067C1395.47 666.667 1394.13 665.733 1389.33 664.933C1374.67 662.133 1374.13 662 1371.07 657.467L1368 652.933V578.8C1368 489.6 1366.53 496.8 1386 493.467C1394.67 491.867 1396.8 490.533 1395.6 487.467C1394.8 485.6 1389.73 485.333 1354 485.333C1318.27 485.333 1313.2 485.6 1312.4 487.467C1311.2 490.667 1313.33 491.733 1324 493.867C1331.73 495.333 1334.53 496.533 1336.93 499.333C1340 502.8 1340 503.067 1339.73 535.733L1339.33 568.667H1298H1256.67L1256.27 535.733C1256 503.067 1256 502.8 1259.07 499.333C1261.47 496.533 1264.27 495.333 1272 493.867C1282.67 491.733 1284.8 490.667 1283.6 487.467C1282.8 485.6 1277.73 485.333 1242 485.333C1206.27 485.333 1201.2 485.6 1200.4 487.467Z" fill="#005983"/>
<path d="M1419.07 487.467C1417.87 490.533 1420 491.867 1428.67 493.467C1440.53 495.467 1441.33 495.867 1444.13 500.4C1446.53 504.533 1446.67 508 1446.67 578.8V652.933L1443.6 657.467C1440.53 662 1440 662.133 1425.33 664.933C1420.53 665.733 1419.2 666.667 1418.93 669.067L1418.53 672H1460C1496.8 672 1501.47 671.733 1502.27 669.867C1503.33 666.933 1500.93 665.733 1490.4 664C1483.07 662.667 1480.8 661.733 1478 658.4L1474.67 654.4V578.667V502.8L1477.73 499.2C1480.13 496.533 1482.93 495.333 1490.67 493.867C1501.33 491.733 1503.47 490.667 1502.27 487.467C1501.47 485.6 1496.4 485.333 1460.67 485.333C1424.93 485.333 1419.87 485.6 1419.07 487.467Z" fill="#005983"/>
<path d="M1.86691 719.333C0.40024 723.067 3.86691 724.933 14.6669 726.667C21.2002 727.733 26.6669 729.333 28.6669 730.933C36.2669 736.933 36.0002 732 36.0002 848.667C36.0002 977.6 37.8669 965.867 16.6669 971.333C7.86691 973.467 5.86691 974.533 5.60024 976.8C5.33357 978.8 6.13357 979.867 8.26691 980.533C13.4669 981.867 109.467 981.467 121.334 979.867C157.867 975.333 183.467 955.867 200.667 919.867C211.467 896.667 216.134 873.867 216.134 842.267C216 804 208 776.267 190 752.267C178 736.4 157.867 723.6 138 719.333C124 716.4 2.93357 716.4 1.86691 719.333ZM138.934 740.4C155.6 748.533 167.2 764.267 173.2 786.933C182.534 821.6 181.334 875.6 170.4 909.333C163.2 931.867 149.6 949.733 134.134 957.333C113.467 967.467 81.8669 965.067 72.8002 952.8C70.0002 949.2 70.0002 947.733 69.6002 846.267C69.3336 771.067 69.7336 742.533 70.8002 740.533C73.6002 735.2 76.8002 734.667 103.467 735.067L128.8 735.333L138.934 740.4Z" fill="#005983"/>
<path d="M623.2 719.333C621.733 723.067 625.2 724.933 636.267 726.667C645.467 728.133 647.867 729.067 651.867 732.8L656.667 737.067L657.467 786.267C657.867 813.2 658 863.733 657.6 898.4C656.8 969.733 657.2 967.2 646.133 972.133C638.933 975.333 637.467 978.267 642.133 980C644.133 980.8 676.133 981.333 722.8 981.333C795.067 981.333 800.133 981.2 802.4 978.933C804.133 977.2 805.867 968.533 809.867 941.733C814.8 907.6 815.067 901.333 811.333 901.333C808.4 901.333 805.867 906.267 802.667 918C797.067 939.2 788.267 951.733 775.467 957.467C766.4 961.467 754.267 962.667 723.733 962.667C695.333 962.667 694.8 962.667 692.8 959.733C690.933 957.067 690.667 944.533 690.667 850C690.667 748.133 690.8 743.067 693.2 737.733C696.267 731.2 700.133 728.933 711.733 726.667C720.267 724.933 724.533 722.4 723.6 719.467C723.2 718.4 709.067 717.867 673.467 717.6C630.133 717.333 623.867 717.6 623.2 719.333Z" fill="#005983"/>
<path d="M294.4 790.4C292.534 790.667 290.267 791.6 289.6 792.4C288.8 793.333 273.734 832.133 256 878.667C238.4 925.2 223.067 964.667 222 966.267C220.934 967.867 216.4 970.533 211.867 972.133C203.6 975.2 200.8 978 204.134 980.133C207.334 982.133 247.067 981.6 250 979.467C252.4 977.733 252.4 977.6 249.6 975.2C245.6 971.867 246 968.933 253.067 947.333L259.334 928.667L294.8 928.267L330.267 928L336.4 944.8C339.867 954 342.667 962.533 342.667 963.867C342.667 967.467 338.8 970.267 330.8 972.267C323.734 974 319.6 977.467 321.867 979.6C323.334 981.067 393.6 981.6 395.867 980.133C398.934 978.133 396.4 974.933 390.4 973.333C381.2 970.8 378.934 969.6 376.667 966.133C375.467 964.4 359.6 925.2 341.2 879.067C322.934 833.067 307.467 794.4 306.934 793.333C305.6 791.2 299.734 789.733 294.4 790.4ZM309.734 869.6C317.6 891.067 324 909.733 324 910.933C324 913.2 321.734 913.333 295.467 913.333C279.734 913.333 266.534 912.8 266.134 912.133C264.934 910.4 292 830.667 293.867 830.667C294.667 830.667 301.867 848.267 309.734 869.6Z" fill="#005983"/>
<path d="M460.667 790.667C446.933 792.533 437.6 796.933 429.067 805.333C422.667 811.733 421.067 814.4 418.667 822.533C412.667 842.133 417.2 861.733 430.267 873.333C438.8 880.8 447.067 885.333 468.667 894C499.467 906.533 509.067 912.533 515.333 923.333C524.4 938.667 519.2 957.333 503.467 965.733C498.533 968.4 496 968.667 479.333 968.667C462.8 968.667 459.733 968.267 452.667 965.467C440.933 960.8 432 951.2 424.533 935.333C418.4 922.533 414.667 919.067 414.667 926.267C414.8 936 419.867 975.067 421.2 976.4C422.8 978 445.2 981.733 466.533 983.867C486.8 986 504.933 983.067 519.067 975.6C533.867 967.867 542.133 954.133 543.6 935.2C546 904.667 530.267 886.667 486.933 870.133C457.067 858.667 444.267 849.2 441.467 836.133C439.333 826.267 441.467 818.667 448 812.8C454.267 807.2 460.4 805.333 472.933 805.333C502.533 805.333 519.467 817.333 526.667 843.333C528.4 849.467 529.467 851.333 531.467 851.333C534.667 851.333 535.067 846.533 533.733 818.133C532.533 793.067 535.733 796 506 792.8C478.267 789.867 469.867 789.467 460.667 790.667Z" fill="#005983"/>
<path d="M1468.67 790.8C1464.8 791.867 1463.87 794.267 1432 878.267C1411.2 933.2 1398.27 965.6 1396.53 967.333C1394.93 968.8 1390.53 971.2 1386.67 972.533C1379.47 975.067 1376.93 978.133 1380.13 980.133C1383.2 982 1423.07 981.6 1425.87 979.6C1428 978 1428 977.733 1425.47 975.467C1421.47 971.733 1422 967.067 1429.07 946.667L1435.33 928.667L1470.8 928.267L1506.27 928L1512.53 945.467C1515.87 955.067 1518.67 963.6 1518.67 964.533C1518.67 967.467 1514.27 970.4 1506.8 972.267C1499.73 974 1495.6 977.467 1497.87 979.6C1499.07 980.933 1562.8 981.867 1569.07 980.667C1571.6 980.267 1573.33 979.067 1573.33 977.867C1573.33 975.733 1570.13 974.133 1561.87 972C1558.93 971.333 1555.2 969.333 1553.73 967.733C1552.27 966 1536.53 928.4 1518.93 884C1501.33 839.6 1485.87 800.8 1484.67 797.733C1482 790.933 1476.4 788.533 1468.67 790.8ZM1485.73 869.733C1493.6 891.067 1500 909.733 1500 910.933C1500 913.2 1497.73 913.333 1471.47 913.333C1455.73 913.333 1442.53 912.8 1442.13 912.133C1441.07 910.4 1468 830.667 1469.73 830.667C1470.67 830.667 1477.73 848.267 1485.73 869.733Z" fill="#005983"/>
<path d="M1634 790.667C1620.27 792.533 1610.93 796.933 1602.4 805.333C1596 811.733 1594.4 814.4 1592 822.533C1586 842.133 1590.53 861.733 1603.6 873.333C1612.13 880.8 1620.4 885.333 1642 894C1663.6 902.8 1673.6 907.867 1680.4 913.467C1694.67 925.2 1697.33 945.6 1686.27 958.133C1678.4 967.2 1673.73 968.667 1652.67 968.667C1636.13 968.667 1633.07 968.267 1626 965.467C1614.27 960.8 1605.33 951.2 1597.87 935.333C1591.73 922.533 1588 919.067 1588 926.267C1588.13 935.733 1593.2 975.067 1594.53 976.4C1596.13 978 1618.67 981.733 1639.87 983.867C1652.67 985.2 1668 984.133 1678.93 981.333C1688.27 978.8 1699.87 972 1705.33 965.6C1713.6 956.267 1716.53 947.2 1716.53 930.667C1716.67 918 1716.27 915.867 1712.93 908.667C1708.53 899.2 1699.47 889.6 1689.2 883.2C1685.07 880.667 1673.6 875.467 1663.73 871.467C1632.4 858.933 1622.4 852.667 1617.47 842.8C1611.87 831.467 1613.07 821.333 1621.2 813.2C1627.07 807.333 1633.33 805.333 1646.27 805.333C1676 805.333 1693.87 818.133 1700.53 844.4C1701.87 849.733 1702.93 851.333 1704.8 851.333C1707.07 851.333 1707.33 850.133 1707.73 840.667C1707.87 834.8 1707.6 822.533 1707.07 813.467C1705.87 793.867 1708.67 796 1679.33 792.8C1651.6 789.867 1643.2 789.467 1634 790.667Z" fill="#005983"/>
<path d="M824.8 795.067C822.534 796.667 822.534 797.067 824.534 798.933C825.734 800.133 830.134 801.6 834.267 802C838.534 802.533 843.467 803.867 845.067 804.933C851.867 809.2 852 810.4 852 888.933C852 955.867 851.867 962.4 849.6 966.533C848.4 969.067 846.134 971.733 844.667 972.533C835.6 977.333 835.334 977.6 838 979.467C841.467 982.133 967.734 982.267 970.934 979.6C973.334 977.867 982.267 928.133 980.8 924.667C980.4 923.6 978.934 922.667 977.467 922.667C975.334 922.667 974.267 924.4 972.134 930.933C968.267 943.6 965.734 948.8 961.067 954C952.267 964.133 941.6 966.533 905.2 966.667C888.934 966.667 882.667 966.267 881.6 964.933C880.134 963.067 878 898.933 879.334 894.667C880.267 891.867 880.267 891.867 911.467 892.8L942.667 893.733V883.333V872.933L912.134 873.733C886.534 874.4 881.334 874.267 880 872.667C877.6 869.733 879.6 812.533 882.267 809.867C883.867 808.4 889.2 808 909.067 808C922.8 808 936.134 808.667 938.8 809.333C949.734 812.4 956.8 820.133 963.467 836C967.734 846.267 969.334 848.267 971.867 846.8C973.334 845.867 973.334 841.867 972 821.867C971.067 808.667 969.734 796.933 969.067 795.6C968 793.467 963.2 793.333 897.6 793.333C841.467 793.333 826.667 793.733 824.8 795.067Z" fill="#005983"/>
<path d="M996.4 794.267C994 795.2 993.867 843.333 996.267 844.8C998.8 846.4 1000.93 841.867 1002.67 831.067C1004.4 819.733 1006.4 815.867 1011.47 813.467C1013.33 812.667 1023.87 811.6 1034.93 811.067C1051.33 810.4 1055.07 810.533 1056.13 812.133C1056.8 813.2 1057.33 846.8 1057.33 887.733C1057.33 951.733 1057.07 962 1055.33 965.467C1052.93 969.867 1050.4 971.2 1040.67 972.667C1032.8 973.733 1029.33 975.333 1029.33 977.867C1029.33 978.933 1030.67 980 1032.4 980.533C1037.33 981.867 1109.87 981.467 1112 980C1115.87 977.467 1111.6 974.133 1102.53 972.533C1091.6 970.667 1090.27 970 1087.6 965.467C1085.6 962 1085.33 954.8 1085.33 887.733C1085.33 832 1085.73 813.467 1086.93 812.267C1088.67 810.533 1106.67 810.267 1122.4 811.867C1135.33 813.067 1136.93 814.8 1140.53 831.6C1142.67 841.467 1143.87 844.8 1145.73 845.067C1147.87 845.467 1148 843.467 1148 820.267C1148 798.4 1147.73 794.8 1145.87 794.133C1143.33 793.2 998.8 793.2 996.4 794.267Z" fill="#005983"/>
<path d="M1172 794.533C1168.13 797.2 1172.27 800.533 1181.47 802.133C1192 803.867 1195.2 805.467 1197.2 810.267C1198.27 813.067 1198.67 834.667 1198.4 890.267C1198 964 1197.87 966.533 1195.33 969.333C1193.87 970.933 1190.8 973.067 1188.4 974C1183.33 976.133 1182.67 979.6 1187.07 980.667C1191.6 981.867 1246.27 980.8 1247.47 979.6C1249.6 977.6 1245.73 974 1239.6 972.267C1235.87 971.2 1232.13 968.933 1230.13 966.533L1226.67 962.4V929.467C1226.67 905.6 1227.07 896.133 1228.27 894.933C1229.33 893.867 1235.07 893.333 1244.93 893.333C1258.93 893.333 1260.4 893.6 1263.07 896.267C1264.67 898 1274.93 916.667 1285.87 938C1296.67 959.333 1306.93 977.733 1308.4 979.2C1311.07 981.467 1313.2 981.6 1330.67 981.067C1352 980.267 1360 978.267 1360 973.467C1360 970.133 1358 969.467 1350.93 971.067C1346.13 972 1344.27 971.733 1339.07 969.067C1333.2 966.267 1331.33 963.6 1311.87 933.467C1300.4 915.6 1289.2 898.933 1286.93 896.267C1284.67 893.733 1282.93 891.2 1283.33 890.667C1283.6 890.133 1286.67 888.933 1290.13 888C1305.2 883.733 1319.47 869.733 1324.13 854.533C1332.13 828.667 1320.13 805.6 1294.13 796.8C1286.53 794.267 1282.4 794.133 1230 793.733C1194.4 793.467 1173.33 793.733 1172 794.533ZM1280.13 811.6C1293.6 818.533 1299.6 833.067 1296.13 850.4C1293.73 862.533 1288.8 869.2 1278.27 874.533C1269.47 879.067 1268.8 879.2 1250 879.733C1235.73 880.133 1230.13 879.867 1228.67 878.667C1226.93 877.333 1226.67 871.867 1226.67 844.933C1226.67 816.933 1226.93 812.533 1228.93 810.4C1230.8 808.267 1233.47 808 1252 808C1272.13 808 1273.07 808.133 1280.13 811.6Z" fill="#005983"/>
</svg>
